<svg xmlns="http://www.w3.org/2000/svg" xmlns:xlink="http://www.w3.org/1999/xlink" width="650" height="300">\n<path  d="M 0 0
L 650 0
L 650 300
L 0 300
L 0 0" style="stroke-width:0;stroke:rgba(255,255,255,1.0);fill:rgba(255,255,255,1.0)"/><path  d="M 38 11
L 602 11
L 602 273
L 38 273
L 38 11" style="stroke-width:0;stroke:rgba(255,255,255,1.0);fill:rgba(255,255,255,1.0)"/><path  d="M 38 273
L 602 273" style="stroke-width:1;stroke:rgba(51,51,51,1.0);fill:none"/><path  d="M 38 273
L 38 278" style="stroke-width:1;stroke:rgba(51,51,51,1.0);fill:none"/><text x="5" y="295" style="stroke-width:0;stroke:none;fill:rgba(51,51,51,1.0);font-size:12.8px;font-family:'Roboto Medium',sans-serif">2024-02-21</text><path  d="M 179 273
L 179 278" style="stroke-width:1;stroke:rgba(51,51,51,1.0);fill:none"/><text x="146" y="295" style="stroke-width:0;stroke:none;fill:rgba(51,51,51,1.0);font-size:12.8px;font-family:'Roboto Medium',sans-serif">2024-02-29</text><path  d="M 320 273
L 320 278" style="stroke-width:1;stroke:rgba(51,51,51,1.0);fill:none"/><text x="287" y="295" style="stroke-width:0;stroke:none;fill:rgba(51,51,51,1.0);font-size:12.8px;font-family:'Roboto Medium',sans-serif">2024-03-07</text><path  d="M 461 273
L 461 278" style="stroke-width:1;stroke:rgba(51,51,51,1.0);fill:none"/><text x="428" y="295" style="stroke-width:0;stroke:none;fill:rgba(51,51,51,1.0);font-size:12.8px;font-family:'Roboto Medium',sans-serif">2024-03-15</text><path  d="M 602 273
L 602 278" style="stroke-width:1;stroke:rgba(51,51,51,1.0);fill:none"/><text x="569" y="295" style="stroke-width:0;stroke:none;fill:rgba(51,51,51,1.0);font-size:12.8px;font-family:'Roboto Medium',sans-serif">2024-03-22</text><path  d="M 603 273
L 603 11" style="stroke-width:1;stroke:rgba(51,51,51,1.0);fill:none"/><path  d="M 603 273
L 608 273" style="stroke-width:1;stroke:rgba(51,51,51,1.0);fill:none"/><text x="613" y="279" style="stroke-width:0;stroke:none;fill:rgba(51,51,51,1.0);font-size:12.8px;font-family:'Roboto Medium',sans-serif">4.00</text><path  d="M 603 229
L 608 229" style="stroke-width:1;stroke:rgba(51,51,51,1.0);fill:none"/><text x="613" y="235" style="stroke-width:0;stroke:none;fill:rgba(51,51,51,1.0);font-size:12.8px;font-family:'Roboto Medium',sans-serif">9.00</text><path  d="M 603 185
L 608 185" style="stroke-width:1;stroke:rgba(51,51,51,1.0);fill:none"/><text x="613" y="191" style="stroke-width:0;stroke:none;fill:rgba(51,51,51,1.0);font-size:12.8px;font-family:'Roboto Medium',sans-serif">14.00</text><path  d="M 603 142
L 608 142" style="stroke-width:1;stroke:rgba(51,51,51,1.0);fill:none"/><text x="613" y="148" style="stroke-width:0;stroke:none;fill:rgba(51,51,51,1.0);font-size:12.8px;font-family:'Roboto Medium',sans-serif">19.00</text><path  d="M 603 98
L 608 98" style="stroke-width:1;stroke:rgba(51,51,51,1.0);fill:none"/><text x="613" y="104" style="stroke-width:0;stroke:none;fill:rgba(51,51,51,1.0);font-size:12.8px;font-family:'Roboto Medium',sans-serif">24.00</text><path  d="M 603 54
L 608 54" style="stroke-width:1;stroke:rgba(51,51,51,1.0);fill:none"/><text x="613" y="60" style="stroke-width:0;stroke:none;fill:rgba(51,51,51,1.0);font-size:12.8px;font-family:'Roboto Medium',sans-serif">29.00</text><path  d="M 603 11
L 608 11" style="stroke-width:1;stroke:rgba(51,51,51,1.0);fill:none"/><text x="613" y="17" style="stroke-width:0;stroke:none;fill:rgba(51,51,51,1.0);font-size:12.8px;font-family:'Roboto Medium',sans-serif">34.00</text><path  d="M 38 238
L 57 255
L 76 238
L 95 115
L 114 185
L 132 229
L 151 203
L 170 238
L 189 246
L 208 273
L 226 159
L 245 159
L 264 168
L 283 264
L 302 246
L 320 238
L 339 11
L 358 159
L 377 185
L 396 185
L 414 168
L 433 168
L 452 246
L 471 246
L 490 203
L 508 273
L 527 255
L 546 220
L 565 229
L 584 255
L 602 107
L 602 273
L 38 273
L 38 238" style="stroke-width:0;stroke:none;fill:rgba(0,116,217,0.3)"/><path  d="M 38 238
L 57 255
L 76 238
L 95 115
L 114 185
L 132 229
L 151 203
L 170 238
L 189 246
L 208 273
L 226 159
L 245 159
L 264 168
L 283 264
L 302 246
L 320 238
L 339 11
L 358 159
L 377 185
L 396 185
L 414 168
L 433 168
L 452 246
L 471 246
L 490 203
L 508 273
L 527 255
L 546 220
L 565 229
L 584 255
L 602 107" style="stroke-width:1;stroke:rgba(0,116,217,0.3);fill:none"/><text x="225" y="33" style="stroke-width:0;stroke:none;fill:rgba(51,51,51,1.0);font-size:23.0px;font-family:'Roboto Medium',sans-serif">github.com/zkitefly</text></svg>