<svg xmlns="http://www.w3.org/2000/svg" xmlns:xlink="http://www.w3.org/1999/xlink" width="650" height="300">\n<path  d="M 0 0
L 650 0
L 650 300
L 0 300
L 0 0" style="stroke-width:0;stroke:rgba(255,255,255,1.0);fill:rgba(255,255,255,1.0)"/><path  d="M 38 11
L 609 11
L 609 273
L 38 273
L 38 11" style="stroke-width:0;stroke:rgba(255,255,255,1.0);fill:rgba(255,255,255,1.0)"/><path  d="M 38 273
L 609 273" style="stroke-width:1;stroke:rgba(51,51,51,1.0);fill:none"/><path  d="M 38 273
L 38 278" style="stroke-width:1;stroke:rgba(51,51,51,1.0);fill:none"/><text x="5" y="295" style="stroke-width:0;stroke:none;fill:rgba(51,51,51,1.0);font-size:12.8px;font-family:'Roboto Medium',sans-serif">2024-01-09</text><path  d="M 181 273
L 181 278" style="stroke-width:1;stroke:rgba(51,51,51,1.0);fill:none"/><text x="148" y="295" style="stroke-width:0;stroke:none;fill:rgba(51,51,51,1.0);font-size:12.8px;font-family:'Roboto Medium',sans-serif">2024-01-17</text><path  d="M 324 273
L 324 278" style="stroke-width:1;stroke:rgba(51,51,51,1.0);fill:none"/><text x="291" y="295" style="stroke-width:0;stroke:none;fill:rgba(51,51,51,1.0);font-size:12.8px;font-family:'Roboto Medium',sans-serif">2024-01-24</text><path  d="M 467 273
L 467 278" style="stroke-width:1;stroke:rgba(51,51,51,1.0);fill:none"/><text x="434" y="295" style="stroke-width:0;stroke:none;fill:rgba(51,51,51,1.0);font-size:12.8px;font-family:'Roboto Medium',sans-serif">2024-02-01</text><path  d="M 609 273
L 609 278" style="stroke-width:1;stroke:rgba(51,51,51,1.0);fill:none"/><text x="576" y="295" style="stroke-width:0;stroke:none;fill:rgba(51,51,51,1.0);font-size:12.8px;font-family:'Roboto Medium',sans-serif">2024-02-08</text><path  d="M 610 273
L 610 11" style="stroke-width:1;stroke:rgba(51,51,51,1.0);fill:none"/><path  d="M 610 273
L 615 273" style="stroke-width:1;stroke:rgba(51,51,51,1.0);fill:none"/><text x="620" y="279" style="stroke-width:0;stroke:none;fill:rgba(51,51,51,1.0);font-size:12.8px;font-family:'Roboto Medium',sans-serif">0.00</text><path  d="M 610 228
L 615 228" style="stroke-width:1;stroke:rgba(51,51,51,1.0);fill:none"/><text x="620" y="234" style="stroke-width:0;stroke:none;fill:rgba(51,51,51,1.0);font-size:12.8px;font-family:'Roboto Medium',sans-serif">0.84</text><path  d="M 610 185
L 615 185" style="stroke-width:1;stroke:rgba(51,51,51,1.0);fill:none"/><text x="620" y="191" style="stroke-width:0;stroke:none;fill:rgba(51,51,51,1.0);font-size:12.8px;font-family:'Roboto Medium',sans-serif">1.67</text><path  d="M 610 142
L 615 142" style="stroke-width:1;stroke:rgba(51,51,51,1.0);fill:none"/><text x="620" y="148" style="stroke-width:0;stroke:none;fill:rgba(51,51,51,1.0);font-size:12.8px;font-family:'Roboto Medium',sans-serif">2.50</text><path  d="M 610 97
L 615 97" style="stroke-width:1;stroke:rgba(51,51,51,1.0);fill:none"/><text x="620" y="103" style="stroke-width:0;stroke:none;fill:rgba(51,51,51,1.0);font-size:12.8px;font-family:'Roboto Medium',sans-serif">3.34</text><path  d="M 610 54
L 615 54" style="stroke-width:1;stroke:rgba(51,51,51,1.0);fill:none"/><text x="620" y="60" style="stroke-width:0;stroke:none;fill:rgba(51,51,51,1.0);font-size:12.8px;font-family:'Roboto Medium',sans-serif">4.17</text><path  d="M 610 11
L 615 11" style="stroke-width:1;stroke:rgba(51,51,51,1.0);fill:none"/><text x="620" y="17" style="stroke-width:0;stroke:none;fill:rgba(51,51,51,1.0);font-size:12.8px;font-family:'Roboto Medium',sans-serif">5.00</text><path  d="M 38 273
L 58 273
L 77 273
L 96 273
L 115 273
L 134 273
L 153 273
L 172 273
L 191 273
L 210 273
L 229 273
L 248 273
L 267 273
L 286 273
L 305 273
L 324 273
L 343 273
L 362 273
L 381 220
L 400 168
L 419 273
L 438 168
L 457 168
L 476 273
L 495 273
L 514 115
L 533 63
L 552 168
L 571 220
L 590 168
L 609 11
L 609 273
L 38 273
L 38 273" style="stroke-width:0;stroke:none;fill:rgba(0,116,217,0.3)"/><path  d="M 38 273
L 58 273
L 77 273
L 96 273
L 115 273
L 134 273
L 153 273
L 172 273
L 191 273
L 210 273
L 229 273
L 248 273
L 267 273
L 286 273
L 305 273
L 324 273
L 343 273
L 362 273
L 381 220
L 400 168
L 419 273
L 438 168
L 457 168
L 476 273
L 495 273
L 514 115
L 533 63
L 552 168
L 571 220
L 590 168
L 609 11" style="stroke-width:1;stroke:rgba(0,116,217,0.3);fill:none"/><text x="134" y="33" style="stroke-width:0;stroke:none;fill:rgba(51,51,51,1.0);font-size:23.0px;font-family:'Roboto Medium',sans-serif">hmcl-snapshot-update.netlify.app/en</text></svg>