<svg xmlns="http://www.w3.org/2000/svg" xmlns:xlink="http://www.w3.org/1999/xlink" width="650" height="300">\n<path  d="M 0 0
L 650 0
L 650 300
L 0 300
L 0 0" style="stroke-width:0;stroke:rgba(255,255,255,1.0);fill:rgba(255,255,255,1.0)"/><path  d="M 38 11
L 602 11
L 602 273
L 38 273
L 38 11" style="stroke-width:0;stroke:rgba(255,255,255,1.0);fill:rgba(255,255,255,1.0)"/><path  d="M 38 273
L 602 273" style="stroke-width:1;stroke:rgba(51,51,51,1.0);fill:none"/><path  d="M 38 273
L 38 278" style="stroke-width:1;stroke:rgba(51,51,51,1.0);fill:none"/><text x="5" y="295" style="stroke-width:0;stroke:none;fill:rgba(51,51,51,1.0);font-size:12.8px;font-family:'Roboto Medium',sans-serif">2024-03-23</text><path  d="M 179 273
L 179 278" style="stroke-width:1;stroke:rgba(51,51,51,1.0);fill:none"/><text x="146" y="295" style="stroke-width:0;stroke:none;fill:rgba(51,51,51,1.0);font-size:12.8px;font-family:'Roboto Medium',sans-serif">2024-03-30</text><path  d="M 320 273
L 320 278" style="stroke-width:1;stroke:rgba(51,51,51,1.0);fill:none"/><text x="287" y="295" style="stroke-width:0;stroke:none;fill:rgba(51,51,51,1.0);font-size:12.8px;font-family:'Roboto Medium',sans-serif">2024-04-07</text><path  d="M 461 273
L 461 278" style="stroke-width:1;stroke:rgba(51,51,51,1.0);fill:none"/><text x="428" y="295" style="stroke-width:0;stroke:none;fill:rgba(51,51,51,1.0);font-size:12.8px;font-family:'Roboto Medium',sans-serif">2024-04-14</text><path  d="M 602 273
L 602 278" style="stroke-width:1;stroke:rgba(51,51,51,1.0);fill:none"/><text x="569" y="295" style="stroke-width:0;stroke:none;fill:rgba(51,51,51,1.0);font-size:12.8px;font-family:'Roboto Medium',sans-serif">2024-04-22</text><path  d="M 603 273
L 603 11" style="stroke-width:1;stroke:rgba(51,51,51,1.0);fill:none"/><path  d="M 603 273
L 608 273" style="stroke-width:1;stroke:rgba(51,51,51,1.0);fill:none"/><text x="613" y="279" style="stroke-width:0;stroke:none;fill:rgba(51,51,51,1.0);font-size:12.8px;font-family:'Roboto Medium',sans-serif">1.00</text><path  d="M 603 229
L 608 229" style="stroke-width:1;stroke:rgba(51,51,51,1.0);fill:none"/><text x="613" y="235" style="stroke-width:0;stroke:none;fill:rgba(51,51,51,1.0);font-size:12.8px;font-family:'Roboto Medium',sans-serif">5.00</text><path  d="M 603 185
L 608 185" style="stroke-width:1;stroke:rgba(51,51,51,1.0);fill:none"/><text x="613" y="191" style="stroke-width:0;stroke:none;fill:rgba(51,51,51,1.0);font-size:12.8px;font-family:'Roboto Medium',sans-serif">9.00</text><path  d="M 603 142
L 608 142" style="stroke-width:1;stroke:rgba(51,51,51,1.0);fill:none"/><text x="613" y="148" style="stroke-width:0;stroke:none;fill:rgba(51,51,51,1.0);font-size:12.8px;font-family:'Roboto Medium',sans-serif">13.00</text><path  d="M 603 98
L 608 98" style="stroke-width:1;stroke:rgba(51,51,51,1.0);fill:none"/><text x="613" y="104" style="stroke-width:0;stroke:none;fill:rgba(51,51,51,1.0);font-size:12.8px;font-family:'Roboto Medium',sans-serif">17.00</text><path  d="M 603 54
L 608 54" style="stroke-width:1;stroke:rgba(51,51,51,1.0);fill:none"/><text x="613" y="60" style="stroke-width:0;stroke:none;fill:rgba(51,51,51,1.0);font-size:12.8px;font-family:'Roboto Medium',sans-serif">21.00</text><path  d="M 603 11
L 608 11" style="stroke-width:1;stroke:rgba(51,51,51,1.0);fill:none"/><text x="613" y="17" style="stroke-width:0;stroke:none;fill:rgba(51,51,51,1.0);font-size:12.8px;font-family:'Roboto Medium',sans-serif">25.00</text><path  d="M 38 65
L 57 11
L 76 262
L 95 152
L 114 240
L 132 163
L 151 207
L 170 196
L 189 120
L 208 185
L 226 152
L 245 207
L 264 152
L 283 174
L 302 163
L 320 240
L 339 196
L 358 229
L 377 98
L 396 218
L 414 218
L 433 152
L 452 131
L 471 174
L 490 240
L 508 207
L 527 240
L 546 196
L 565 120
L 584 185
L 602 273
L 602 273
L 38 273
L 38 65" style="stroke-width:0;stroke:none;fill:rgba(0,116,217,0.3)"/><path  d="M 38 65
L 57 11
L 76 262
L 95 152
L 114 240
L 132 163
L 151 207
L 170 196
L 189 120
L 208 185
L 226 152
L 245 207
L 264 152
L 283 174
L 302 163
L 320 240
L 339 196
L 358 229
L 377 98
L 396 218
L 414 218
L 433 152
L 452 131
L 471 174
L 490 240
L 508 207
L 527 240
L 546 196
L 565 120
L 584 185
L 602 273" style="stroke-width:1;stroke:rgba(0,116,217,0.3);fill:none"/><text x="151" y="33" style="stroke-width:0;stroke:none;fill:rgba(51,51,51,1.0);font-size:23.0px;font-family:'Roboto Medium',sans-serif">hmcl-snapshot-update.netlify.app</text></svg>