<svg xmlns="http://www.w3.org/2000/svg" xmlns:xlink="http://www.w3.org/1999/xlink" width="650" height="300">\n<path  d="M 0 0
L 650 0
L 650 300
L 0 300
L 0 0" style="stroke-width:0;stroke:rgba(255,255,255,1.0);fill:rgba(255,255,255,1.0)"/><path  d="M 38 11
L 587 11
L 587 273
L 38 273
L 38 11" style="stroke-width:0;stroke:rgba(255,255,255,1.0);fill:rgba(255,255,255,1.0)"/><path  d="M 38 273
L 587 273" style="stroke-width:1;stroke:rgba(51,51,51,1.0);fill:none"/><path  d="M 38 273
L 38 278" style="stroke-width:1;stroke:rgba(51,51,51,1.0);fill:none"/><text x="5" y="295" style="stroke-width:0;stroke:none;fill:rgba(51,51,51,1.0);font-size:12.8px;font-family:'Roboto Medium',sans-serif">2024-04-03</text><path  d="M 176 273
L 176 278" style="stroke-width:1;stroke:rgba(51,51,51,1.0);fill:none"/><text x="143" y="295" style="stroke-width:0;stroke:none;fill:rgba(51,51,51,1.0);font-size:12.8px;font-family:'Roboto Medium',sans-serif">2024-04-10</text><path  d="M 313 273
L 313 278" style="stroke-width:1;stroke:rgba(51,51,51,1.0);fill:none"/><text x="280" y="295" style="stroke-width:0;stroke:none;fill:rgba(51,51,51,1.0);font-size:12.8px;font-family:'Roboto Medium',sans-serif">2024-04-18</text><path  d="M 450 273
L 450 278" style="stroke-width:1;stroke:rgba(51,51,51,1.0);fill:none"/><text x="417" y="295" style="stroke-width:0;stroke:none;fill:rgba(51,51,51,1.0);font-size:12.8px;font-family:'Roboto Medium',sans-serif">2024-04-25</text><path  d="M 587 273
L 587 278" style="stroke-width:1;stroke:rgba(51,51,51,1.0);fill:none"/><text x="554" y="295" style="stroke-width:0;stroke:none;fill:rgba(51,51,51,1.0);font-size:12.8px;font-family:'Roboto Medium',sans-serif">2024-05-03</text><path  d="M 588 273
L 588 11" style="stroke-width:1;stroke:rgba(51,51,51,1.0);fill:none"/><path  d="M 588 273
L 593 273" style="stroke-width:1;stroke:rgba(51,51,51,1.0);fill:none"/><text x="598" y="279" style="stroke-width:0;stroke:none;fill:rgba(51,51,51,1.0);font-size:12.8px;font-family:'Roboto Medium',sans-serif">400.00</text><path  d="M 588 228
L 593 228" style="stroke-width:1;stroke:rgba(51,51,51,1.0);fill:none"/><text x="598" y="234" style="stroke-width:0;stroke:none;fill:rgba(51,51,51,1.0);font-size:12.8px;font-family:'Roboto Medium',sans-serif">670.00</text><path  d="M 588 184
L 593 184" style="stroke-width:1;stroke:rgba(51,51,51,1.0);fill:none"/><text x="598" y="190" style="stroke-width:0;stroke:none;fill:rgba(51,51,51,1.0);font-size:12.8px;font-family:'Roboto Medium',sans-serif">940.00</text><path  d="M 588 142
L 593 142" style="stroke-width:1;stroke:rgba(51,51,51,1.0);fill:none"/><text x="598" y="148" style="stroke-width:0;stroke:none;fill:rgba(51,51,51,1.0);font-size:12.8px;font-family:'Roboto Medium',sans-serif">1200.00</text><path  d="M 588 97
L 593 97" style="stroke-width:1;stroke:rgba(51,51,51,1.0);fill:none"/><text x="598" y="103" style="stroke-width:0;stroke:none;fill:rgba(51,51,51,1.0);font-size:12.8px;font-family:'Roboto Medium',sans-serif">1470.00</text><path  d="M 588 53
L 593 53" style="stroke-width:1;stroke:rgba(51,51,51,1.0);fill:none"/><text x="598" y="59" style="stroke-width:0;stroke:none;fill:rgba(51,51,51,1.0);font-size:12.8px;font-family:'Roboto Medium',sans-serif">1740.00</text><path  d="M 588 11
L 593 11" style="stroke-width:1;stroke:rgba(51,51,51,1.0);fill:none"/><text x="598" y="17" style="stroke-width:0;stroke:none;fill:rgba(51,51,51,1.0);font-size:12.8px;font-family:'Roboto Medium',sans-serif">2000.00</text><path  d="M 38 140
L 57 31
L 75 49
L 93 129
L 112 216
L 130 212
L 148 228
L 167 222
L 185 218
L 203 171
L 221 14
L 240 129
L 258 248
L 276 239
L 295 227
L 313 240
L 331 168
L 350 73
L 368 129
L 386 237
L 404 234
L 423 235
L 441 238
L 459 178
L 478 117
L 496 230
L 514 228
L 533 154
L 551 66
L 569 79
L 587 268
L 587 273
L 38 273
L 38 140" style="stroke-width:0;stroke:none;fill:rgba(0,116,217,0.3)"/><path  d="M 38 140
L 57 31
L 75 49
L 93 129
L 112 216
L 130 212
L 148 228
L 167 222
L 185 218
L 203 171
L 221 14
L 240 129
L 258 248
L 276 239
L 295 227
L 313 240
L 331 168
L 350 73
L 368 129
L 386 237
L 404 234
L 423 235
L 441 238
L 459 178
L 478 117
L 496 230
L 514 228
L 533 154
L 551 66
L 569 79
L 587 268" style="stroke-width:1;stroke:rgba(0,116,217,0.3);fill:none"/><text x="185" y="33" style="stroke-width:0;stroke:none;fill:rgba(51,51,51,1.0);font-size:23.0px;font-family:'Roboto Medium',sans-serif">docs.hmcl.net/groups.html</text></svg>