<svg xmlns="http://www.w3.org/2000/svg" xmlns:xlink="http://www.w3.org/1999/xlink" width="650" height="300">\n<path  d="M 0 0
L 650 0
L 650 300
L 0 300
L 0 0" style="stroke-width:0;stroke:rgba(255,255,255,1.0);fill:rgba(255,255,255,1.0)"/><path  d="M 38 11
L 587 11
L 587 273
L 38 273
L 38 11" style="stroke-width:0;stroke:rgba(255,255,255,1.0);fill:rgba(255,255,255,1.0)"/><path  d="M 38 273
L 587 273" style="stroke-width:1;stroke:rgba(51,51,51,1.0);fill:none"/><path  d="M 38 273
L 38 278" style="stroke-width:1;stroke:rgba(51,51,51,1.0);fill:none"/><text x="5" y="295" style="stroke-width:0;stroke:none;fill:rgba(51,51,51,1.0);font-size:12.8px;font-family:'Roboto Medium',sans-serif">2024-04-28</text><path  d="M 176 273
L 176 278" style="stroke-width:1;stroke:rgba(51,51,51,1.0);fill:none"/><text x="143" y="295" style="stroke-width:0;stroke:none;fill:rgba(51,51,51,1.0);font-size:12.8px;font-family:'Roboto Medium',sans-serif">2024-05-05</text><path  d="M 313 273
L 313 278" style="stroke-width:1;stroke:rgba(51,51,51,1.0);fill:none"/><text x="280" y="295" style="stroke-width:0;stroke:none;fill:rgba(51,51,51,1.0);font-size:12.8px;font-family:'Roboto Medium',sans-serif">2024-05-13</text><path  d="M 450 273
L 450 278" style="stroke-width:1;stroke:rgba(51,51,51,1.0);fill:none"/><text x="417" y="295" style="stroke-width:0;stroke:none;fill:rgba(51,51,51,1.0);font-size:12.8px;font-family:'Roboto Medium',sans-serif">2024-05-20</text><path  d="M 587 273
L 587 278" style="stroke-width:1;stroke:rgba(51,51,51,1.0);fill:none"/><text x="554" y="295" style="stroke-width:0;stroke:none;fill:rgba(51,51,51,1.0);font-size:12.8px;font-family:'Roboto Medium',sans-serif">2024-05-28</text><path  d="M 588 273
L 588 11" style="stroke-width:1;stroke:rgba(51,51,51,1.0);fill:none"/><path  d="M 588 273
L 593 273" style="stroke-width:1;stroke:rgba(51,51,51,1.0);fill:none"/><text x="598" y="279" style="stroke-width:0;stroke:none;fill:rgba(51,51,51,1.0);font-size:12.8px;font-family:'Roboto Medium',sans-serif">300.00</text><path  d="M 588 229
L 593 229" style="stroke-width:1;stroke:rgba(51,51,51,1.0);fill:none"/><text x="598" y="235" style="stroke-width:0;stroke:none;fill:rgba(51,51,51,1.0);font-size:12.8px;font-family:'Roboto Medium',sans-serif">1150.00</text><path  d="M 588 185
L 593 185" style="stroke-width:1;stroke:rgba(51,51,51,1.0);fill:none"/><text x="598" y="191" style="stroke-width:0;stroke:none;fill:rgba(51,51,51,1.0);font-size:12.8px;font-family:'Roboto Medium',sans-serif">2000.00</text><path  d="M 588 142
L 593 142" style="stroke-width:1;stroke:rgba(51,51,51,1.0);fill:none"/><text x="598" y="148" style="stroke-width:0;stroke:none;fill:rgba(51,51,51,1.0);font-size:12.8px;font-family:'Roboto Medium',sans-serif">2850.00</text><path  d="M 588 98
L 593 98" style="stroke-width:1;stroke:rgba(51,51,51,1.0);fill:none"/><text x="598" y="104" style="stroke-width:0;stroke:none;fill:rgba(51,51,51,1.0);font-size:12.8px;font-family:'Roboto Medium',sans-serif">3700.00</text><path  d="M 588 54
L 593 54" style="stroke-width:1;stroke:rgba(51,51,51,1.0);fill:none"/><text x="598" y="60" style="stroke-width:0;stroke:none;fill:rgba(51,51,51,1.0);font-size:12.8px;font-family:'Roboto Medium',sans-serif">4550.00</text><path  d="M 588 11
L 593 11" style="stroke-width:1;stroke:rgba(51,51,51,1.0);fill:none"/><text x="598" y="17" style="stroke-width:0;stroke:none;fill:rgba(51,51,51,1.0);font-size:12.8px;font-family:'Roboto Medium',sans-serif">5400.00</text><path  d="M 38 206
L 57 207
L 75 166
L 93 101
L 112 122
L 130 131
L 148 134
L 167 170
L 185 213
L 203 211
L 221 220
L 240 218
L 258 200
L 276 163
L 295 137
L 313 210
L 331 212
L 350 135
L 368 74
L 386 61
L 404 14
L 423 60
L 441 159
L 459 159
L 478 171
L 496 184
L 514 152
L 533 73
L 551 118
L 569 188
L 587 268
L 587 273
L 38 273
L 38 206" style="stroke-width:0;stroke:none;fill:rgba(0,116,217,0.3)"/><path  d="M 38 206
L 57 207
L 75 166
L 93 101
L 112 122
L 130 131
L 148 134
L 167 170
L 185 213
L 203 211
L 221 220
L 240 218
L 258 200
L 276 163
L 295 137
L 313 210
L 331 212
L 350 135
L 368 74
L 386 61
L 404 14
L 423 60
L 441 159
L 459 159
L 478 171
L 496 184
L 514 152
L 533 73
L 551 118
L 569 188
L 587 268" style="stroke-width:1;stroke:rgba(0,116,217,0.3);fill:none"/><text x="199" y="33" style="stroke-width:0;stroke:none;fill:rgba(51,51,51,1.0);font-size:23.0px;font-family:'Roboto Medium',sans-serif">docs.hmcl.net/help.html</text></svg>