<svg xmlns="http://www.w3.org/2000/svg" xmlns:xlink="http://www.w3.org/1999/xlink" width="650" height="300">\n<path  d="M 0 0
L 650 0
L 650 300
L 0 300
L 0 0" style="stroke-width:0;stroke:rgba(255,255,255,1.0);fill:rgba(255,255,255,1.0)"/><path  d="M 38 11
L 609 11
L 609 273
L 38 273
L 38 11" style="stroke-width:0;stroke:rgba(255,255,255,1.0);fill:rgba(255,255,255,1.0)"/><path  d="M 38 273
L 609 273" style="stroke-width:1;stroke:rgba(51,51,51,1.0);fill:none"/><path  d="M 38 273
L 38 278" style="stroke-width:1;stroke:rgba(51,51,51,1.0);fill:none"/><text x="5" y="295" style="stroke-width:0;stroke:none;fill:rgba(51,51,51,1.0);font-size:12.8px;font-family:'Roboto Medium',sans-serif">2024-03-31</text><path  d="M 181 273
L 181 278" style="stroke-width:1;stroke:rgba(51,51,51,1.0);fill:none"/><text x="148" y="295" style="stroke-width:0;stroke:none;fill:rgba(51,51,51,1.0);font-size:12.8px;font-family:'Roboto Medium',sans-serif">2024-04-08</text><path  d="M 324 273
L 324 278" style="stroke-width:1;stroke:rgba(51,51,51,1.0);fill:none"/><text x="291" y="295" style="stroke-width:0;stroke:none;fill:rgba(51,51,51,1.0);font-size:12.8px;font-family:'Roboto Medium',sans-serif">2024-04-15</text><path  d="M 467 273
L 467 278" style="stroke-width:1;stroke:rgba(51,51,51,1.0);fill:none"/><text x="434" y="295" style="stroke-width:0;stroke:none;fill:rgba(51,51,51,1.0);font-size:12.8px;font-family:'Roboto Medium',sans-serif">2024-04-23</text><path  d="M 609 273
L 609 278" style="stroke-width:1;stroke:rgba(51,51,51,1.0);fill:none"/><text x="576" y="295" style="stroke-width:0;stroke:none;fill:rgba(51,51,51,1.0);font-size:12.8px;font-family:'Roboto Medium',sans-serif">2024-04-30</text><path  d="M 610 273
L 610 11" style="stroke-width:1;stroke:rgba(51,51,51,1.0);fill:none"/><path  d="M 610 273
L 615 273" style="stroke-width:1;stroke:rgba(51,51,51,1.0);fill:none"/><text x="620" y="279" style="stroke-width:0;stroke:none;fill:rgba(51,51,51,1.0);font-size:12.8px;font-family:'Roboto Medium',sans-serif">0.00</text><path  d="M 610 229
L 615 229" style="stroke-width:1;stroke:rgba(51,51,51,1.0);fill:none"/><text x="620" y="235" style="stroke-width:0;stroke:none;fill:rgba(51,51,51,1.0);font-size:12.8px;font-family:'Roboto Medium',sans-serif">1.17</text><path  d="M 610 185
L 615 185" style="stroke-width:1;stroke:rgba(51,51,51,1.0);fill:none"/><text x="620" y="191" style="stroke-width:0;stroke:none;fill:rgba(51,51,51,1.0);font-size:12.8px;font-family:'Roboto Medium',sans-serif">2.34</text><path  d="M 610 142
L 615 142" style="stroke-width:1;stroke:rgba(51,51,51,1.0);fill:none"/><text x="620" y="148" style="stroke-width:0;stroke:none;fill:rgba(51,51,51,1.0);font-size:12.8px;font-family:'Roboto Medium',sans-serif">3.50</text><path  d="M 610 98
L 615 98" style="stroke-width:1;stroke:rgba(51,51,51,1.0);fill:none"/><text x="620" y="104" style="stroke-width:0;stroke:none;fill:rgba(51,51,51,1.0);font-size:12.8px;font-family:'Roboto Medium',sans-serif">4.67</text><path  d="M 610 54
L 615 54" style="stroke-width:1;stroke:rgba(51,51,51,1.0);fill:none"/><text x="620" y="60" style="stroke-width:0;stroke:none;fill:rgba(51,51,51,1.0);font-size:12.8px;font-family:'Roboto Medium',sans-serif">5.84</text><path  d="M 610 11
L 615 11" style="stroke-width:1;stroke:rgba(51,51,51,1.0);fill:none"/><text x="620" y="17" style="stroke-width:0;stroke:none;fill:rgba(51,51,51,1.0);font-size:12.8px;font-family:'Roboto Medium',sans-serif">7.00</text><path  d="M 38 273
L 58 198
L 77 160
L 96 198
L 115 198
L 134 48
L 153 48
L 172 235
L 191 235
L 210 11
L 229 160
L 248 273
L 267 235
L 286 198
L 305 273
L 324 235
L 343 235
L 362 48
L 381 160
L 400 198
L 419 235
L 438 235
L 457 198
L 476 198
L 495 198
L 514 160
L 533 48
L 552 85
L 571 85
L 590 11
L 609 123
L 609 273
L 38 273
L 38 273" style="stroke-width:0;stroke:none;fill:rgba(0,116,217,0.3)"/><path  d="M 38 273
L 58 198
L 77 160
L 96 198
L 115 198
L 134 48
L 153 48
L 172 235
L 191 235
L 210 11
L 229 160
L 248 273
L 267 235
L 286 198
L 305 273
L 324 235
L 343 235
L 362 48
L 381 160
L 400 198
L 419 235
L 438 235
L 457 198
L 476 198
L 495 198
L 514 160
L 533 48
L 552 85
L 571 85
L 590 11
L 609 123" style="stroke-width:1;stroke:rgba(0,116,217,0.3);fill:none"/><text x="134" y="33" style="stroke-width:0;stroke:none;fill:rgba(51,51,51,1.0);font-size:23.0px;font-family:'Roboto Medium',sans-serif">hmcl-snapshot-update.netlify.app/en</text></svg>