<svg xmlns="http://www.w3.org/2000/svg" xmlns:xlink="http://www.w3.org/1999/xlink" width="650" height="300">\n<path  d="M 0 0
L 650 0
L 650 300
L 0 300
L 0 0" style="stroke-width:0;stroke:rgba(255,255,255,1.0);fill:rgba(255,255,255,1.0)"/><path  d="M 38 11
L 587 11
L 587 273
L 38 273
L 38 11" style="stroke-width:0;stroke:rgba(255,255,255,1.0);fill:rgba(255,255,255,1.0)"/><path  d="M 38 273
L 587 273" style="stroke-width:1;stroke:rgba(51,51,51,1.0);fill:none"/><path  d="M 38 273
L 38 278" style="stroke-width:1;stroke:rgba(51,51,51,1.0);fill:none"/><text x="5" y="295" style="stroke-width:0;stroke:none;fill:rgba(51,51,51,1.0);font-size:12.8px;font-family:'Roboto Medium',sans-serif">2024-06-21</text><path  d="M 176 273
L 176 278" style="stroke-width:1;stroke:rgba(51,51,51,1.0);fill:none"/><text x="143" y="295" style="stroke-width:0;stroke:none;fill:rgba(51,51,51,1.0);font-size:12.8px;font-family:'Roboto Medium',sans-serif">2024-06-28</text><path  d="M 313 273
L 313 278" style="stroke-width:1;stroke:rgba(51,51,51,1.0);fill:none"/><text x="280" y="295" style="stroke-width:0;stroke:none;fill:rgba(51,51,51,1.0);font-size:12.8px;font-family:'Roboto Medium',sans-serif">2024-07-06</text><path  d="M 450 273
L 450 278" style="stroke-width:1;stroke:rgba(51,51,51,1.0);fill:none"/><text x="417" y="295" style="stroke-width:0;stroke:none;fill:rgba(51,51,51,1.0);font-size:12.8px;font-family:'Roboto Medium',sans-serif">2024-07-13</text><path  d="M 587 273
L 587 278" style="stroke-width:1;stroke:rgba(51,51,51,1.0);fill:none"/><text x="554" y="295" style="stroke-width:0;stroke:none;fill:rgba(51,51,51,1.0);font-size:12.8px;font-family:'Roboto Medium',sans-serif">2024-07-21</text><path  d="M 588 273
L 588 11" style="stroke-width:1;stroke:rgba(51,51,51,1.0);fill:none"/><path  d="M 588 273
L 593 273" style="stroke-width:1;stroke:rgba(51,51,51,1.0);fill:none"/><text x="598" y="279" style="stroke-width:0;stroke:none;fill:rgba(51,51,51,1.0);font-size:12.8px;font-family:'Roboto Medium',sans-serif">350.00</text><path  d="M 588 228
L 593 228" style="stroke-width:1;stroke:rgba(51,51,51,1.0);fill:none"/><text x="598" y="234" style="stroke-width:0;stroke:none;fill:rgba(51,51,51,1.0);font-size:12.8px;font-family:'Roboto Medium',sans-serif">520.00</text><path  d="M 588 184
L 593 184" style="stroke-width:1;stroke:rgba(51,51,51,1.0);fill:none"/><text x="598" y="190" style="stroke-width:0;stroke:none;fill:rgba(51,51,51,1.0);font-size:12.8px;font-family:'Roboto Medium',sans-serif">690.00</text><path  d="M 588 140
L 593 140" style="stroke-width:1;stroke:rgba(51,51,51,1.0);fill:none"/><text x="598" y="146" style="stroke-width:0;stroke:none;fill:rgba(51,51,51,1.0);font-size:12.8px;font-family:'Roboto Medium',sans-serif">860.00</text><path  d="M 588 96
L 593 96" style="stroke-width:1;stroke:rgba(51,51,51,1.0);fill:none"/><text x="598" y="102" style="stroke-width:0;stroke:none;fill:rgba(51,51,51,1.0);font-size:12.8px;font-family:'Roboto Medium',sans-serif">1030.00</text><path  d="M 588 52
L 593 52" style="stroke-width:1;stroke:rgba(51,51,51,1.0);fill:none"/><text x="598" y="58" style="stroke-width:0;stroke:none;fill:rgba(51,51,51,1.0);font-size:12.8px;font-family:'Roboto Medium',sans-serif">1200.00</text><path  d="M 588 11
L 593 11" style="stroke-width:1;stroke:rgba(51,51,51,1.0);fill:none"/><text x="598" y="17" style="stroke-width:0;stroke:none;fill:rgba(51,51,51,1.0);font-size:12.8px;font-family:'Roboto Medium',sans-serif">1360.00</text><path  d="M 38 101
L 57 13
L 75 45
L 93 131
L 112 141
L 130 127
L 148 137
L 167 117
L 185 83
L 203 97
L 221 150
L 240 116
L 258 137
L 276 146
L 295 127
L 313 126
L 331 131
L 350 126
L 368 124
L 386 129
L 404 126
L 423 108
L 441 112
L 459 88
L 478 74
L 496 91
L 514 72
L 533 88
L 551 82
L 569 64
L 587 271
L 587 273
L 38 273
L 38 101" style="stroke-width:0;stroke:none;fill:rgba(0,116,217,0.3)"/><path  d="M 38 101
L 57 13
L 75 45
L 93 131
L 112 141
L 130 127
L 148 137
L 167 117
L 185 83
L 203 97
L 221 150
L 240 116
L 258 137
L 276 146
L 295 127
L 313 126
L 331 131
L 350 126
L 368 124
L 386 129
L 404 126
L 423 108
L 441 112
L 459 88
L 478 74
L 496 91
L 514 72
L 533 88
L 551 82
L 569 64
L 587 271" style="stroke-width:1;stroke:rgba(0,116,217,0.3);fill:none"/><text x="185" y="33" style="stroke-width:0;stroke:none;fill:rgba(51,51,51,1.0);font-size:23.0px;font-family:'Roboto Medium',sans-serif">docs.hmcl.net/groups.html</text></svg>