<svg xmlns="http://www.w3.org/2000/svg" xmlns:xlink="http://www.w3.org/1999/xlink" width="650" height="300">\n<path  d="M 0 0
L 650 0
L 650 300
L 0 300
L 0 0" style="stroke-width:0;stroke:rgba(255,255,255,1.0);fill:rgba(255,255,255,1.0)"/><path  d="M 38 11
L 587 11
L 587 273
L 38 273
L 38 11" style="stroke-width:0;stroke:rgba(255,255,255,1.0);fill:rgba(255,255,255,1.0)"/><path  d="M 38 273
L 587 273" style="stroke-width:1;stroke:rgba(51,51,51,1.0);fill:none"/><path  d="M 38 273
L 38 278" style="stroke-width:1;stroke:rgba(51,51,51,1.0);fill:none"/><text x="5" y="295" style="stroke-width:0;stroke:none;fill:rgba(51,51,51,1.0);font-size:12.8px;font-family:'Roboto Medium',sans-serif">2024-05-03</text><path  d="M 176 273
L 176 278" style="stroke-width:1;stroke:rgba(51,51,51,1.0);fill:none"/><text x="143" y="295" style="stroke-width:0;stroke:none;fill:rgba(51,51,51,1.0);font-size:12.8px;font-family:'Roboto Medium',sans-serif">2024-05-11</text><path  d="M 313 273
L 313 278" style="stroke-width:1;stroke:rgba(51,51,51,1.0);fill:none"/><text x="280" y="295" style="stroke-width:0;stroke:none;fill:rgba(51,51,51,1.0);font-size:12.8px;font-family:'Roboto Medium',sans-serif">2024-05-18</text><path  d="M 450 273
L 450 278" style="stroke-width:1;stroke:rgba(51,51,51,1.0);fill:none"/><text x="417" y="295" style="stroke-width:0;stroke:none;fill:rgba(51,51,51,1.0);font-size:12.8px;font-family:'Roboto Medium',sans-serif">2024-05-26</text><path  d="M 587 273
L 587 278" style="stroke-width:1;stroke:rgba(51,51,51,1.0);fill:none"/><text x="554" y="295" style="stroke-width:0;stroke:none;fill:rgba(51,51,51,1.0);font-size:12.8px;font-family:'Roboto Medium',sans-serif">2024-06-02</text><path  d="M 588 273
L 588 11" style="stroke-width:1;stroke:rgba(51,51,51,1.0);fill:none"/><path  d="M 588 273
L 593 273" style="stroke-width:1;stroke:rgba(51,51,51,1.0);fill:none"/><text x="598" y="279" style="stroke-width:0;stroke:none;fill:rgba(51,51,51,1.0);font-size:12.8px;font-family:'Roboto Medium',sans-serif">1300.00</text><path  d="M 588 228
L 593 228" style="stroke-width:1;stroke:rgba(51,51,51,1.0);fill:none"/><text x="598" y="234" style="stroke-width:0;stroke:none;fill:rgba(51,51,51,1.0);font-size:12.8px;font-family:'Roboto Medium',sans-serif">1990.00</text><path  d="M 588 185
L 593 185" style="stroke-width:1;stroke:rgba(51,51,51,1.0);fill:none"/><text x="598" y="191" style="stroke-width:0;stroke:none;fill:rgba(51,51,51,1.0);font-size:12.8px;font-family:'Roboto Medium',sans-serif">2670.00</text><path  d="M 588 142
L 593 142" style="stroke-width:1;stroke:rgba(51,51,51,1.0);fill:none"/><text x="598" y="148" style="stroke-width:0;stroke:none;fill:rgba(51,51,51,1.0);font-size:12.8px;font-family:'Roboto Medium',sans-serif">3350.00</text><path  d="M 588 97
L 593 97" style="stroke-width:1;stroke:rgba(51,51,51,1.0);fill:none"/><text x="598" y="103" style="stroke-width:0;stroke:none;fill:rgba(51,51,51,1.0);font-size:12.8px;font-family:'Roboto Medium',sans-serif">4040.00</text><path  d="M 588 54
L 593 54" style="stroke-width:1;stroke:rgba(51,51,51,1.0);fill:none"/><text x="598" y="60" style="stroke-width:0;stroke:none;fill:rgba(51,51,51,1.0);font-size:12.8px;font-family:'Roboto Medium',sans-serif">4720.00</text><path  d="M 588 11
L 593 11" style="stroke-width:1;stroke:rgba(51,51,51,1.0);fill:none"/><text x="598" y="17" style="stroke-width:0;stroke:none;fill:rgba(51,51,51,1.0);font-size:12.8px;font-family:'Roboto Medium',sans-serif">5400.00</text><path  d="M 38 160
L 57 164
L 75 209
L 93 262
L 112 260
L 130 271
L 148 269
L 167 246
L 185 201
L 203 168
L 221 258
L 240 261
L 258 166
L 276 89
L 295 74
L 313 14
L 331 72
L 350 195
L 368 195
L 386 210
L 404 226
L 423 187
L 441 89
L 459 144
L 478 231
L 496 239
L 514 244
L 533 239
L 551 199
L 569 102
L 587 163
L 587 273
L 38 273
L 38 160" style="stroke-width:0;stroke:none;fill:rgba(0,116,217,0.3)"/><path  d="M 38 160
L 57 164
L 75 209
L 93 262
L 112 260
L 130 271
L 148 269
L 167 246
L 185 201
L 203 168
L 221 258
L 240 261
L 258 166
L 276 89
L 295 74
L 313 14
L 331 72
L 350 195
L 368 195
L 386 210
L 404 226
L 423 187
L 441 89
L 459 144
L 478 231
L 496 239
L 514 244
L 533 239
L 551 199
L 569 102
L 587 163" style="stroke-width:1;stroke:rgba(0,116,217,0.3);fill:none"/><text x="199" y="33" style="stroke-width:0;stroke:none;fill:rgba(51,51,51,1.0);font-size:23.0px;font-family:'Roboto Medium',sans-serif">docs.hmcl.net/help.html</text></svg>