<svg xmlns="http://www.w3.org/2000/svg" xmlns:xlink="http://www.w3.org/1999/xlink" width="650" height="300">\n<path  d="M 0 0
L 650 0
L 650 300
L 0 300
L 0 0" style="stroke-width:0;stroke:rgba(255,255,255,1.0);fill:rgba(255,255,255,1.0)"/><path  d="M 38 11
L 609 11
L 609 273
L 38 273
L 38 11" style="stroke-width:0;stroke:rgba(255,255,255,1.0);fill:rgba(255,255,255,1.0)"/><path  d="M 38 273
L 609 273" style="stroke-width:1;stroke:rgba(51,51,51,1.0);fill:none"/><path  d="M 38 273
L 38 278" style="stroke-width:1;stroke:rgba(51,51,51,1.0);fill:none"/><text x="5" y="295" style="stroke-width:0;stroke:none;fill:rgba(51,51,51,1.0);font-size:12.8px;font-family:'Roboto Medium',sans-serif">2024-05-09</text><path  d="M 181 273
L 181 278" style="stroke-width:1;stroke:rgba(51,51,51,1.0);fill:none"/><text x="148" y="295" style="stroke-width:0;stroke:none;fill:rgba(51,51,51,1.0);font-size:12.8px;font-family:'Roboto Medium',sans-serif">2024-05-16</text><path  d="M 324 273
L 324 278" style="stroke-width:1;stroke:rgba(51,51,51,1.0);fill:none"/><text x="291" y="295" style="stroke-width:0;stroke:none;fill:rgba(51,51,51,1.0);font-size:12.8px;font-family:'Roboto Medium',sans-serif">2024-05-24</text><path  d="M 467 273
L 467 278" style="stroke-width:1;stroke:rgba(51,51,51,1.0);fill:none"/><text x="434" y="295" style="stroke-width:0;stroke:none;fill:rgba(51,51,51,1.0);font-size:12.8px;font-family:'Roboto Medium',sans-serif">2024-05-31</text><path  d="M 609 273
L 609 278" style="stroke-width:1;stroke:rgba(51,51,51,1.0);fill:none"/><text x="576" y="295" style="stroke-width:0;stroke:none;fill:rgba(51,51,51,1.0);font-size:12.8px;font-family:'Roboto Medium',sans-serif">2024-06-08</text><path  d="M 610 273
L 610 11" style="stroke-width:1;stroke:rgba(51,51,51,1.0);fill:none"/><path  d="M 610 273
L 615 273" style="stroke-width:1;stroke:rgba(51,51,51,1.0);fill:none"/><text x="620" y="279" style="stroke-width:0;stroke:none;fill:rgba(51,51,51,1.0);font-size:12.8px;font-family:'Roboto Medium',sans-serif">0.00</text><path  d="M 610 229
L 615 229" style="stroke-width:1;stroke:rgba(51,51,51,1.0);fill:none"/><text x="620" y="235" style="stroke-width:0;stroke:none;fill:rgba(51,51,51,1.0);font-size:12.8px;font-family:'Roboto Medium',sans-serif">0.67</text><path  d="M 610 185
L 615 185" style="stroke-width:1;stroke:rgba(51,51,51,1.0);fill:none"/><text x="620" y="191" style="stroke-width:0;stroke:none;fill:rgba(51,51,51,1.0);font-size:12.8px;font-family:'Roboto Medium',sans-serif">1.34</text><path  d="M 610 142
L 615 142" style="stroke-width:1;stroke:rgba(51,51,51,1.0);fill:none"/><text x="620" y="148" style="stroke-width:0;stroke:none;fill:rgba(51,51,51,1.0);font-size:12.8px;font-family:'Roboto Medium',sans-serif">2.00</text><path  d="M 610 98
L 615 98" style="stroke-width:1;stroke:rgba(51,51,51,1.0);fill:none"/><text x="620" y="104" style="stroke-width:0;stroke:none;fill:rgba(51,51,51,1.0);font-size:12.8px;font-family:'Roboto Medium',sans-serif">2.67</text><path  d="M 610 54
L 615 54" style="stroke-width:1;stroke:rgba(51,51,51,1.0);fill:none"/><text x="620" y="60" style="stroke-width:0;stroke:none;fill:rgba(51,51,51,1.0);font-size:12.8px;font-family:'Roboto Medium',sans-serif">3.34</text><path  d="M 610 11
L 615 11" style="stroke-width:1;stroke:rgba(51,51,51,1.0);fill:none"/><text x="620" y="17" style="stroke-width:0;stroke:none;fill:rgba(51,51,51,1.0);font-size:12.8px;font-family:'Roboto Medium',sans-serif">4.00</text><path  d="M 38 11
L 58 142
L 77 142
L 96 207
L 115 76
L 134 76
L 153 76
L 172 76
L 191 11
L 210 11
L 229 142
L 248 273
L 267 273
L 286 273
L 305 273
L 324 273
L 343 273
L 362 142
L 381 273
L 400 273
L 419 273
L 438 273
L 457 207
L 476 273
L 495 273
L 514 273
L 533 273
L 552 273
L 571 273
L 590 273
L 609 273
L 609 273
L 38 273
L 38 11" style="stroke-width:0;stroke:none;fill:rgba(0,116,217,0.3)"/><path  d="M 38 11
L 58 142
L 77 142
L 96 207
L 115 76
L 134 76
L 153 76
L 172 76
L 191 11
L 210 11
L 229 142
L 248 273
L 267 273
L 286 273
L 305 273
L 324 273
L 343 273
L 362 142
L 381 273
L 400 273
L 419 273
L 438 273
L 457 207
L 476 273
L 495 273
L 514 273
L 533 273
L 552 273
L 571 273
L 590 273
L 609 273" style="stroke-width:1;stroke:rgba(0,116,217,0.3);fill:none"/><text x="134" y="33" style="stroke-width:0;stroke:none;fill:rgba(51,51,51,1.0);font-size:23.0px;font-family:'Roboto Medium',sans-serif">hmcl-snapshot-update.netlify.app/en</text></svg>