<svg xmlns="http://www.w3.org/2000/svg" xmlns:xlink="http://www.w3.org/1999/xlink" width="650" height="300">\n<path  d="M 0 0
L 650 0
L 650 300
L 0 300
L 0 0" style="stroke-width:0;stroke:rgba(255,255,255,1.0);fill:rgba(255,255,255,1.0)"/><path  d="M 38 11
L 580 11
L 580 273
L 38 273
L 38 11" style="stroke-width:0;stroke:rgba(255,255,255,1.0);fill:rgba(255,255,255,1.0)"/><path  d="M 38 273
L 580 273" style="stroke-width:1;stroke:rgba(51,51,51,1.0);fill:none"/><path  d="M 38 273
L 38 278" style="stroke-width:1;stroke:rgba(51,51,51,1.0);fill:none"/><text x="5" y="295" style="stroke-width:0;stroke:none;fill:rgba(51,51,51,1.0);font-size:12.8px;font-family:'Roboto Medium',sans-serif">2024-05-17</text><path  d="M 174 273
L 174 278" style="stroke-width:1;stroke:rgba(51,51,51,1.0);fill:none"/><text x="141" y="295" style="stroke-width:0;stroke:none;fill:rgba(51,51,51,1.0);font-size:12.8px;font-family:'Roboto Medium',sans-serif">2024-05-24</text><path  d="M 309 273
L 309 278" style="stroke-width:1;stroke:rgba(51,51,51,1.0);fill:none"/><text x="276" y="295" style="stroke-width:0;stroke:none;fill:rgba(51,51,51,1.0);font-size:12.8px;font-family:'Roboto Medium',sans-serif">2024-06-01</text><path  d="M 445 273
L 445 278" style="stroke-width:1;stroke:rgba(51,51,51,1.0);fill:none"/><text x="412" y="295" style="stroke-width:0;stroke:none;fill:rgba(51,51,51,1.0);font-size:12.8px;font-family:'Roboto Medium',sans-serif">2024-06-08</text><path  d="M 580 273
L 580 278" style="stroke-width:1;stroke:rgba(51,51,51,1.0);fill:none"/><text x="547" y="295" style="stroke-width:0;stroke:none;fill:rgba(51,51,51,1.0);font-size:12.8px;font-family:'Roboto Medium',sans-serif">2024-06-16</text><path  d="M 581 273
L 581 11" style="stroke-width:1;stroke:rgba(51,51,51,1.0);fill:none"/><path  d="M 581 273
L 586 273" style="stroke-width:1;stroke:rgba(51,51,51,1.0);fill:none"/><text x="591" y="279" style="stroke-width:0;stroke:none;fill:rgba(51,51,51,1.0);font-size:12.8px;font-family:'Roboto Medium',sans-serif">1200.00</text><path  d="M 581 229
L 586 229" style="stroke-width:1;stroke:rgba(51,51,51,1.0);fill:none"/><text x="591" y="235" style="stroke-width:0;stroke:none;fill:rgba(51,51,51,1.0);font-size:12.8px;font-family:'Roboto Medium',sans-serif">2700.00</text><path  d="M 581 185
L 586 185" style="stroke-width:1;stroke:rgba(51,51,51,1.0);fill:none"/><text x="591" y="191" style="stroke-width:0;stroke:none;fill:rgba(51,51,51,1.0);font-size:12.8px;font-family:'Roboto Medium',sans-serif">4200.00</text><path  d="M 581 142
L 586 142" style="stroke-width:1;stroke:rgba(51,51,51,1.0);fill:none"/><text x="591" y="148" style="stroke-width:0;stroke:none;fill:rgba(51,51,51,1.0);font-size:12.8px;font-family:'Roboto Medium',sans-serif">5700.00</text><path  d="M 581 98
L 586 98" style="stroke-width:1;stroke:rgba(51,51,51,1.0);fill:none"/><text x="591" y="104" style="stroke-width:0;stroke:none;fill:rgba(51,51,51,1.0);font-size:12.8px;font-family:'Roboto Medium',sans-serif">7200.00</text><path  d="M 581 54
L 586 54" style="stroke-width:1;stroke:rgba(51,51,51,1.0);fill:none"/><text x="591" y="60" style="stroke-width:0;stroke:none;fill:rgba(51,51,51,1.0);font-size:12.8px;font-family:'Roboto Medium',sans-serif">8700.00</text><path  d="M 581 11
L 586 11" style="stroke-width:1;stroke:rgba(51,51,51,1.0);fill:none"/><text x="591" y="17" style="stroke-width:0;stroke:none;fill:rgba(51,51,51,1.0);font-size:12.8px;font-family:'Roboto Medium',sans-serif">10200.00</text><path  d="M 38 169
L 57 135
L 75 148
L 93 210
L 111 219
L 129 230
L 147 234
L 165 207
L 183 172
L 201 205
L 219 248
L 237 248
L 255 249
L 273 253
L 291 231
L 309 200
L 328 11
L 346 146
L 364 185
L 382 193
L 400 188
L 418 159
L 436 128
L 454 153
L 472 193
L 490 232
L 508 235
L 526 241
L 544 225
L 562 196
L 580 271
L 580 273
L 38 273
L 38 169" style="stroke-width:0;stroke:none;fill:rgba(0,116,217,0.3)"/><path  d="M 38 169
L 57 135
L 75 148
L 93 210
L 111 219
L 129 230
L 147 234
L 165 207
L 183 172
L 201 205
L 219 248
L 237 248
L 255 249
L 273 253
L 291 231
L 309 200
L 328 11
L 346 146
L 364 185
L 382 193
L 400 188
L 418 159
L 436 128
L 454 153
L 472 193
L 490 232
L 508 235
L 526 241
L 544 225
L 562 196
L 580 271" style="stroke-width:1;stroke:rgba(0,116,217,0.3);fill:none"/><text x="144" y="33" style="stroke-width:0;stroke:none;fill:rgba(51,51,51,1.0);font-size:23.0px;font-family:'Roboto Medium',sans-serif">docs.hmcl.net/changelog/dev.html</text></svg>