<svg xmlns="http://www.w3.org/2000/svg" xmlns:xlink="http://www.w3.org/1999/xlink" width="650" height="300">\n<path  d="M 0 0
L 650 0
L 650 300
L 0 300
L 0 0" style="stroke-width:0;stroke:rgba(255,255,255,1.0);fill:rgba(255,255,255,1.0)"/><path  d="M 38 11
L 609 11
L 609 273
L 38 273
L 38 11" style="stroke-width:0;stroke:rgba(255,255,255,1.0);fill:rgba(255,255,255,1.0)"/><path  d="M 38 273
L 609 273" style="stroke-width:1;stroke:rgba(51,51,51,1.0);fill:none"/><path  d="M 38 273
L 38 278" style="stroke-width:1;stroke:rgba(51,51,51,1.0);fill:none"/><text x="5" y="295" style="stroke-width:0;stroke:none;fill:rgba(51,51,51,1.0);font-size:12.8px;font-family:'Roboto Medium',sans-serif">2024-03-27</text><path  d="M 181 273
L 181 278" style="stroke-width:1;stroke:rgba(51,51,51,1.0);fill:none"/><text x="148" y="295" style="stroke-width:0;stroke:none;fill:rgba(51,51,51,1.0);font-size:12.8px;font-family:'Roboto Medium',sans-serif">2024-04-03</text><path  d="M 324 273
L 324 278" style="stroke-width:1;stroke:rgba(51,51,51,1.0);fill:none"/><text x="291" y="295" style="stroke-width:0;stroke:none;fill:rgba(51,51,51,1.0);font-size:12.8px;font-family:'Roboto Medium',sans-serif">2024-04-11</text><path  d="M 467 273
L 467 278" style="stroke-width:1;stroke:rgba(51,51,51,1.0);fill:none"/><text x="434" y="295" style="stroke-width:0;stroke:none;fill:rgba(51,51,51,1.0);font-size:12.8px;font-family:'Roboto Medium',sans-serif">2024-04-18</text><path  d="M 609 273
L 609 278" style="stroke-width:1;stroke:rgba(51,51,51,1.0);fill:none"/><text x="576" y="295" style="stroke-width:0;stroke:none;fill:rgba(51,51,51,1.0);font-size:12.8px;font-family:'Roboto Medium',sans-serif">2024-04-26</text><path  d="M 610 273
L 610 11" style="stroke-width:1;stroke:rgba(51,51,51,1.0);fill:none"/><path  d="M 610 273
L 615 273" style="stroke-width:1;stroke:rgba(51,51,51,1.0);fill:none"/><text x="620" y="279" style="stroke-width:0;stroke:none;fill:rgba(51,51,51,1.0);font-size:12.8px;font-family:'Roboto Medium',sans-serif">0.00</text><path  d="M 610 229
L 615 229" style="stroke-width:1;stroke:rgba(51,51,51,1.0);fill:none"/><text x="620" y="235" style="stroke-width:0;stroke:none;fill:rgba(51,51,51,1.0);font-size:12.8px;font-family:'Roboto Medium',sans-serif">1.17</text><path  d="M 610 185
L 615 185" style="stroke-width:1;stroke:rgba(51,51,51,1.0);fill:none"/><text x="620" y="191" style="stroke-width:0;stroke:none;fill:rgba(51,51,51,1.0);font-size:12.8px;font-family:'Roboto Medium',sans-serif">2.34</text><path  d="M 610 142
L 615 142" style="stroke-width:1;stroke:rgba(51,51,51,1.0);fill:none"/><text x="620" y="148" style="stroke-width:0;stroke:none;fill:rgba(51,51,51,1.0);font-size:12.8px;font-family:'Roboto Medium',sans-serif">3.50</text><path  d="M 610 98
L 615 98" style="stroke-width:1;stroke:rgba(51,51,51,1.0);fill:none"/><text x="620" y="104" style="stroke-width:0;stroke:none;fill:rgba(51,51,51,1.0);font-size:12.8px;font-family:'Roboto Medium',sans-serif">4.67</text><path  d="M 610 54
L 615 54" style="stroke-width:1;stroke:rgba(51,51,51,1.0);fill:none"/><text x="620" y="60" style="stroke-width:0;stroke:none;fill:rgba(51,51,51,1.0);font-size:12.8px;font-family:'Roboto Medium',sans-serif">5.84</text><path  d="M 610 11
L 615 11" style="stroke-width:1;stroke:rgba(51,51,51,1.0);fill:none"/><text x="620" y="17" style="stroke-width:0;stroke:none;fill:rgba(51,51,51,1.0);font-size:12.8px;font-family:'Roboto Medium',sans-serif">7.00</text><path  d="M 38 198
L 58 235
L 77 235
L 96 235
L 115 235
L 134 198
L 153 160
L 172 198
L 191 198
L 210 48
L 229 48
L 248 235
L 267 235
L 286 11
L 305 160
L 324 273
L 343 235
L 362 198
L 381 273
L 400 235
L 419 235
L 438 48
L 457 160
L 476 198
L 495 235
L 514 235
L 533 198
L 552 198
L 571 198
L 590 160
L 609 273
L 609 273
L 38 273
L 38 198" style="stroke-width:0;stroke:none;fill:rgba(0,116,217,0.3)"/><path  d="M 38 198
L 58 235
L 77 235
L 96 235
L 115 235
L 134 198
L 153 160
L 172 198
L 191 198
L 210 48
L 229 48
L 248 235
L 267 235
L 286 11
L 305 160
L 324 273
L 343 235
L 362 198
L 381 273
L 400 235
L 419 235
L 438 48
L 457 160
L 476 198
L 495 235
L 514 235
L 533 198
L 552 198
L 571 198
L 590 160
L 609 273" style="stroke-width:1;stroke:rgba(0,116,217,0.3);fill:none"/><text x="134" y="33" style="stroke-width:0;stroke:none;fill:rgba(51,51,51,1.0);font-size:23.0px;font-family:'Roboto Medium',sans-serif">hmcl-snapshot-update.netlify.app/en</text></svg>