<svg xmlns="http://www.w3.org/2000/svg" xmlns:xlink="http://www.w3.org/1999/xlink" width="650" height="300">\n<path  d="M 0 0
L 650 0
L 650 300
L 0 300
L 0 0" style="stroke-width:0;stroke:rgba(255,255,255,1.0);fill:rgba(255,255,255,1.0)"/><path  d="M 38 11
L 595 11
L 595 273
L 38 273
L 38 11" style="stroke-width:0;stroke:rgba(255,255,255,1.0);fill:rgba(255,255,255,1.0)"/><path  d="M 38 273
L 595 273" style="stroke-width:1;stroke:rgba(51,51,51,1.0);fill:none"/><path  d="M 38 273
L 38 278" style="stroke-width:1;stroke:rgba(51,51,51,1.0);fill:none"/><text x="5" y="295" style="stroke-width:0;stroke:none;fill:rgba(51,51,51,1.0);font-size:12.8px;font-family:'Roboto Medium',sans-serif">2024-06-02</text><path  d="M 178 273
L 178 278" style="stroke-width:1;stroke:rgba(51,51,51,1.0);fill:none"/><text x="145" y="295" style="stroke-width:0;stroke:none;fill:rgba(51,51,51,1.0);font-size:12.8px;font-family:'Roboto Medium',sans-serif">2024-06-09</text><path  d="M 317 273
L 317 278" style="stroke-width:1;stroke:rgba(51,51,51,1.0);fill:none"/><text x="284" y="295" style="stroke-width:0;stroke:none;fill:rgba(51,51,51,1.0);font-size:12.8px;font-family:'Roboto Medium',sans-serif">2024-06-17</text><path  d="M 456 273
L 456 278" style="stroke-width:1;stroke:rgba(51,51,51,1.0);fill:none"/><text x="423" y="295" style="stroke-width:0;stroke:none;fill:rgba(51,51,51,1.0);font-size:12.8px;font-family:'Roboto Medium',sans-serif">2024-06-24</text><path  d="M 595 273
L 595 278" style="stroke-width:1;stroke:rgba(51,51,51,1.0);fill:none"/><text x="562" y="295" style="stroke-width:0;stroke:none;fill:rgba(51,51,51,1.0);font-size:12.8px;font-family:'Roboto Medium',sans-serif">2024-07-02</text><path  d="M 596 273
L 596 11" style="stroke-width:1;stroke:rgba(51,51,51,1.0);fill:none"/><path  d="M 596 273
L 601 273" style="stroke-width:1;stroke:rgba(51,51,51,1.0);fill:none"/><text x="606" y="279" style="stroke-width:0;stroke:none;fill:rgba(51,51,51,1.0);font-size:12.8px;font-family:'Roboto Medium',sans-serif">10.00</text><path  d="M 596 229
L 601 229" style="stroke-width:1;stroke:rgba(51,51,51,1.0);fill:none"/><text x="606" y="235" style="stroke-width:0;stroke:none;fill:rgba(51,51,51,1.0);font-size:12.8px;font-family:'Roboto Medium',sans-serif">132.00</text><path  d="M 596 185
L 601 185" style="stroke-width:1;stroke:rgba(51,51,51,1.0);fill:none"/><text x="606" y="191" style="stroke-width:0;stroke:none;fill:rgba(51,51,51,1.0);font-size:12.8px;font-family:'Roboto Medium',sans-serif">254.00</text><path  d="M 596 142
L 601 142" style="stroke-width:1;stroke:rgba(51,51,51,1.0);fill:none"/><text x="606" y="148" style="stroke-width:0;stroke:none;fill:rgba(51,51,51,1.0);font-size:12.8px;font-family:'Roboto Medium',sans-serif">375.00</text><path  d="M 596 98
L 601 98" style="stroke-width:1;stroke:rgba(51,51,51,1.0);fill:none"/><text x="606" y="104" style="stroke-width:0;stroke:none;fill:rgba(51,51,51,1.0);font-size:12.8px;font-family:'Roboto Medium',sans-serif">497.00</text><path  d="M 596 54
L 601 54" style="stroke-width:1;stroke:rgba(51,51,51,1.0);fill:none"/><text x="606" y="60" style="stroke-width:0;stroke:none;fill:rgba(51,51,51,1.0);font-size:12.8px;font-family:'Roboto Medium',sans-serif">619.00</text><path  d="M 596 11
L 601 11" style="stroke-width:1;stroke:rgba(51,51,51,1.0);fill:none"/><text x="606" y="17" style="stroke-width:0;stroke:none;fill:rgba(51,51,51,1.0);font-size:12.8px;font-family:'Roboto Medium',sans-serif">740.00</text><path  d="M 38 185
L 57 149
L 76 143
L 94 142
L 113 184
L 131 178
L 150 192
L 168 182
L 187 149
L 206 132
L 224 137
L 243 146
L 261 139
L 280 162
L 298 186
L 317 159
L 336 172
L 354 166
L 373 11
L 391 169
L 410 197
L 428 201
L 447 166
L 466 149
L 484 154
L 503 152
L 521 173
L 540 195
L 558 194
L 577 152
L 595 269
L 595 273
L 38 273
L 38 185" style="stroke-width:0;stroke:none;fill:rgba(0,116,217,0.3)"/><path  d="M 38 185
L 57 149
L 76 143
L 94 142
L 113 184
L 131 178
L 150 192
L 168 182
L 187 149
L 206 132
L 224 137
L 243 146
L 261 139
L 280 162
L 298 186
L 317 159
L 336 172
L 354 166
L 373 11
L 391 169
L 410 197
L 428 201
L 447 166
L 466 149
L 484 154
L 503 152
L 521 173
L 540 195
L 558 194
L 577 152
L 595 269" style="stroke-width:1;stroke:rgba(0,116,217,0.3);fill:none"/><text x="216" y="33" style="stroke-width:0;stroke:none;fill:rgba(51,51,51,1.0);font-size:23.0px;font-family:'Roboto Medium',sans-serif">hits.seeyoufarm.com</text></svg>