<svg xmlns="http://www.w3.org/2000/svg" xmlns:xlink="http://www.w3.org/1999/xlink" width="650" height="300">\n<path  d="M 0 0
L 650 0
L 650 300
L 0 300
L 0 0" style="stroke-width:0;stroke:rgba(255,255,255,1.0);fill:rgba(255,255,255,1.0)"/><path  d="M 38 11
L 602 11
L 602 273
L 38 273
L 38 11" style="stroke-width:0;stroke:rgba(255,255,255,1.0);fill:rgba(255,255,255,1.0)"/><path  d="M 38 273
L 602 273" style="stroke-width:1;stroke:rgba(51,51,51,1.0);fill:none"/><path  d="M 38 273
L 38 278" style="stroke-width:1;stroke:rgba(51,51,51,1.0);fill:none"/><text x="5" y="295" style="stroke-width:0;stroke:none;fill:rgba(51,51,51,1.0);font-size:12.8px;font-family:'Roboto Medium',sans-serif">2024-03-27</text><path  d="M 179 273
L 179 278" style="stroke-width:1;stroke:rgba(51,51,51,1.0);fill:none"/><text x="146" y="295" style="stroke-width:0;stroke:none;fill:rgba(51,51,51,1.0);font-size:12.8px;font-family:'Roboto Medium',sans-serif">2024-04-03</text><path  d="M 320 273
L 320 278" style="stroke-width:1;stroke:rgba(51,51,51,1.0);fill:none"/><text x="287" y="295" style="stroke-width:0;stroke:none;fill:rgba(51,51,51,1.0);font-size:12.8px;font-family:'Roboto Medium',sans-serif">2024-04-11</text><path  d="M 461 273
L 461 278" style="stroke-width:1;stroke:rgba(51,51,51,1.0);fill:none"/><text x="428" y="295" style="stroke-width:0;stroke:none;fill:rgba(51,51,51,1.0);font-size:12.8px;font-family:'Roboto Medium',sans-serif">2024-04-18</text><path  d="M 602 273
L 602 278" style="stroke-width:1;stroke:rgba(51,51,51,1.0);fill:none"/><text x="569" y="295" style="stroke-width:0;stroke:none;fill:rgba(51,51,51,1.0);font-size:12.8px;font-family:'Roboto Medium',sans-serif">2024-04-26</text><path  d="M 603 273
L 603 11" style="stroke-width:1;stroke:rgba(51,51,51,1.0);fill:none"/><path  d="M 603 273
L 608 273" style="stroke-width:1;stroke:rgba(51,51,51,1.0);fill:none"/><text x="613" y="279" style="stroke-width:0;stroke:none;fill:rgba(51,51,51,1.0);font-size:12.8px;font-family:'Roboto Medium',sans-serif">3.00</text><path  d="M 603 228
L 608 228" style="stroke-width:1;stroke:rgba(51,51,51,1.0);fill:none"/><text x="613" y="234" style="stroke-width:0;stroke:none;fill:rgba(51,51,51,1.0);font-size:12.8px;font-family:'Roboto Medium',sans-serif">5.40</text><path  d="M 603 185
L 608 185" style="stroke-width:1;stroke:rgba(51,51,51,1.0);fill:none"/><text x="613" y="191" style="stroke-width:0;stroke:none;fill:rgba(51,51,51,1.0);font-size:12.8px;font-family:'Roboto Medium',sans-serif">7.70</text><path  d="M 603 142
L 608 142" style="stroke-width:1;stroke:rgba(51,51,51,1.0);fill:none"/><text x="613" y="148" style="stroke-width:0;stroke:none;fill:rgba(51,51,51,1.0);font-size:12.8px;font-family:'Roboto Medium',sans-serif">10.00</text><path  d="M 603 97
L 608 97" style="stroke-width:1;stroke:rgba(51,51,51,1.0);fill:none"/><text x="613" y="103" style="stroke-width:0;stroke:none;fill:rgba(51,51,51,1.0);font-size:12.8px;font-family:'Roboto Medium',sans-serif">12.40</text><path  d="M 603 54
L 608 54" style="stroke-width:1;stroke:rgba(51,51,51,1.0);fill:none"/><text x="613" y="60" style="stroke-width:0;stroke:none;fill:rgba(51,51,51,1.0);font-size:12.8px;font-family:'Roboto Medium',sans-serif">14.70</text><path  d="M 603 11
L 608 11" style="stroke-width:1;stroke:rgba(51,51,51,1.0);fill:none"/><text x="613" y="17" style="stroke-width:0;stroke:none;fill:rgba(51,51,51,1.0);font-size:12.8px;font-family:'Roboto Medium',sans-serif">17.00</text><path  d="M 38 254
L 57 123
L 76 198
L 95 179
L 114 48
L 132 160
L 151 104
L 170 198
L 189 104
L 208 142
L 226 123
L 245 254
L 264 179
L 283 235
L 302 11
L 320 216
L 339 216
L 358 104
L 377 67
L 396 142
L 414 254
L 433 198
L 452 254
L 471 179
L 490 48
L 508 160
L 527 198
L 546 235
L 565 85
L 584 216
L 602 273
L 602 273
L 38 273
L 38 254" style="stroke-width:0;stroke:none;fill:rgba(0,116,217,0.3)"/><path  d="M 38 254
L 57 123
L 76 198
L 95 179
L 114 48
L 132 160
L 151 104
L 170 198
L 189 104
L 208 142
L 226 123
L 245 254
L 264 179
L 283 235
L 302 11
L 320 216
L 339 216
L 358 104
L 377 67
L 396 142
L 414 254
L 433 198
L 452 254
L 471 179
L 490 48
L 508 160
L 527 198
L 546 235
L 565 85
L 584 216
L 602 273" style="stroke-width:1;stroke:rgba(0,116,217,0.3);fill:none"/><text x="151" y="33" style="stroke-width:0;stroke:none;fill:rgba(51,51,51,1.0);font-size:23.0px;font-family:'Roboto Medium',sans-serif">hmcl-snapshot-update.netlify.app</text></svg>