<svg xmlns="http://www.w3.org/2000/svg" xmlns:xlink="http://www.w3.org/1999/xlink" width="650" height="300">\n<path  d="M 0 0
L 650 0
L 650 300
L 0 300
L 0 0" style="stroke-width:0;stroke:rgba(255,255,255,1.0);fill:rgba(255,255,255,1.0)"/><path  d="M 38 11
L 587 11
L 587 273
L 38 273
L 38 11" style="stroke-width:0;stroke:rgba(255,255,255,1.0);fill:rgba(255,255,255,1.0)"/><path  d="M 38 273
L 587 273" style="stroke-width:1;stroke:rgba(51,51,51,1.0);fill:none"/><path  d="M 38 273
L 38 278" style="stroke-width:1;stroke:rgba(51,51,51,1.0);fill:none"/><text x="5" y="295" style="stroke-width:0;stroke:none;fill:rgba(51,51,51,1.0);font-size:12.8px;font-family:'Roboto Medium',sans-serif">2024-04-14</text><path  d="M 176 273
L 176 278" style="stroke-width:1;stroke:rgba(51,51,51,1.0);fill:none"/><text x="143" y="295" style="stroke-width:0;stroke:none;fill:rgba(51,51,51,1.0);font-size:12.8px;font-family:'Roboto Medium',sans-serif">2024-04-21</text><path  d="M 313 273
L 313 278" style="stroke-width:1;stroke:rgba(51,51,51,1.0);fill:none"/><text x="280" y="295" style="stroke-width:0;stroke:none;fill:rgba(51,51,51,1.0);font-size:12.8px;font-family:'Roboto Medium',sans-serif">2024-04-29</text><path  d="M 450 273
L 450 278" style="stroke-width:1;stroke:rgba(51,51,51,1.0);fill:none"/><text x="417" y="295" style="stroke-width:0;stroke:none;fill:rgba(51,51,51,1.0);font-size:12.8px;font-family:'Roboto Medium',sans-serif">2024-05-06</text><path  d="M 587 273
L 587 278" style="stroke-width:1;stroke:rgba(51,51,51,1.0);fill:none"/><text x="554" y="295" style="stroke-width:0;stroke:none;fill:rgba(51,51,51,1.0);font-size:12.8px;font-family:'Roboto Medium',sans-serif">2024-05-14</text><path  d="M 588 273
L 588 11" style="stroke-width:1;stroke:rgba(51,51,51,1.0);fill:none"/><path  d="M 588 273
L 593 273" style="stroke-width:1;stroke:rgba(51,51,51,1.0);fill:none"/><text x="598" y="279" style="stroke-width:0;stroke:none;fill:rgba(51,51,51,1.0);font-size:12.8px;font-family:'Roboto Medium',sans-serif">400.00</text><path  d="M 588 229
L 593 229" style="stroke-width:1;stroke:rgba(51,51,51,1.0);fill:none"/><text x="598" y="235" style="stroke-width:0;stroke:none;fill:rgba(51,51,51,1.0);font-size:12.8px;font-family:'Roboto Medium',sans-serif">1820.00</text><path  d="M 588 185
L 593 185" style="stroke-width:1;stroke:rgba(51,51,51,1.0);fill:none"/><text x="598" y="191" style="stroke-width:0;stroke:none;fill:rgba(51,51,51,1.0);font-size:12.8px;font-family:'Roboto Medium',sans-serif">3240.00</text><path  d="M 588 142
L 593 142" style="stroke-width:1;stroke:rgba(51,51,51,1.0);fill:none"/><text x="598" y="148" style="stroke-width:0;stroke:none;fill:rgba(51,51,51,1.0);font-size:12.8px;font-family:'Roboto Medium',sans-serif">4650.00</text><path  d="M 588 98
L 593 98" style="stroke-width:1;stroke:rgba(51,51,51,1.0);fill:none"/><text x="598" y="104" style="stroke-width:0;stroke:none;fill:rgba(51,51,51,1.0);font-size:12.8px;font-family:'Roboto Medium',sans-serif">6070.00</text><path  d="M 588 54
L 593 54" style="stroke-width:1;stroke:rgba(51,51,51,1.0);fill:none"/><text x="598" y="60" style="stroke-width:0;stroke:none;fill:rgba(51,51,51,1.0);font-size:12.8px;font-family:'Roboto Medium',sans-serif">7490.00</text><path  d="M 588 11
L 593 11" style="stroke-width:1;stroke:rgba(51,51,51,1.0);fill:none"/><text x="598" y="17" style="stroke-width:0;stroke:none;fill:rgba(51,51,51,1.0);font-size:12.8px;font-family:'Roboto Medium',sans-serif">8900.00</text><path  d="M 38 170
L 57 226
L 75 227
L 93 11
L 112 134
L 130 76
L 148 31
L 167 117
L 185 197
L 203 205
L 221 211
L 240 210
L 258 187
L 276 155
L 295 207
L 313 211
L 331 173
L 350 129
L 368 153
L 386 171
L 404 175
L 423 196
L 441 223
L 459 226
L 478 231
L 496 229
L 514 223
L 533 204
L 551 194
L 569 233
L 587 270
L 587 273
L 38 273
L 38 170" style="stroke-width:0;stroke:none;fill:rgba(0,116,217,0.3)"/><path  d="M 38 170
L 57 226
L 75 227
L 93 11
L 112 134
L 130 76
L 148 31
L 167 117
L 185 197
L 203 205
L 221 211
L 240 210
L 258 187
L 276 155
L 295 207
L 313 211
L 331 173
L 350 129
L 368 153
L 386 171
L 404 175
L 423 196
L 441 223
L 459 226
L 478 231
L 496 229
L 514 223
L 533 204
L 551 194
L 569 233
L 587 270" style="stroke-width:1;stroke:rgba(0,116,217,0.3);fill:none"/><text x="144" y="33" style="stroke-width:0;stroke:none;fill:rgba(51,51,51,1.0);font-size:23.0px;font-family:'Roboto Medium',sans-serif">docs.hmcl.net/changelog/dev.html</text></svg>