<svg xmlns="http://www.w3.org/2000/svg" xmlns:xlink="http://www.w3.org/1999/xlink" width="650" height="300">\n<path  d="M 0 0
L 650 0
L 650 300
L 0 300
L 0 0" style="stroke-width:0;stroke:rgba(255,255,255,1.0);fill:rgba(255,255,255,1.0)"/><path  d="M 38 11
L 595 11
L 595 273
L 38 273
L 38 11" style="stroke-width:0;stroke:rgba(255,255,255,1.0);fill:rgba(255,255,255,1.0)"/><path  d="M 38 273
L 595 273" style="stroke-width:1;stroke:rgba(51,51,51,1.0);fill:none"/><path  d="M 38 273
L 38 278" style="stroke-width:1;stroke:rgba(51,51,51,1.0);fill:none"/><text x="5" y="295" style="stroke-width:0;stroke:none;fill:rgba(51,51,51,1.0);font-size:12.8px;font-family:'Roboto Medium',sans-serif">2024-07-07</text><path  d="M 178 273
L 178 278" style="stroke-width:1;stroke:rgba(51,51,51,1.0);fill:none"/><text x="145" y="295" style="stroke-width:0;stroke:none;fill:rgba(51,51,51,1.0);font-size:12.8px;font-family:'Roboto Medium',sans-serif">2024-07-14</text><path  d="M 317 273
L 317 278" style="stroke-width:1;stroke:rgba(51,51,51,1.0);fill:none"/><text x="284" y="295" style="stroke-width:0;stroke:none;fill:rgba(51,51,51,1.0);font-size:12.8px;font-family:'Roboto Medium',sans-serif">2024-07-22</text><path  d="M 456 273
L 456 278" style="stroke-width:1;stroke:rgba(51,51,51,1.0);fill:none"/><text x="423" y="295" style="stroke-width:0;stroke:none;fill:rgba(51,51,51,1.0);font-size:12.8px;font-family:'Roboto Medium',sans-serif">2024-07-29</text><path  d="M 595 273
L 595 278" style="stroke-width:1;stroke:rgba(51,51,51,1.0);fill:none"/><text x="562" y="295" style="stroke-width:0;stroke:none;fill:rgba(51,51,51,1.0);font-size:12.8px;font-family:'Roboto Medium',sans-serif">2024-08-06</text><path  d="M 596 273
L 596 11" style="stroke-width:1;stroke:rgba(51,51,51,1.0);fill:none"/><path  d="M 596 273
L 601 273" style="stroke-width:1;stroke:rgba(51,51,51,1.0);fill:none"/><text x="606" y="279" style="stroke-width:0;stroke:none;fill:rgba(51,51,51,1.0);font-size:12.8px;font-family:'Roboto Medium',sans-serif">30.00</text><path  d="M 596 229
L 601 229" style="stroke-width:1;stroke:rgba(51,51,51,1.0);fill:none"/><text x="606" y="235" style="stroke-width:0;stroke:none;fill:rgba(51,51,51,1.0);font-size:12.8px;font-family:'Roboto Medium',sans-serif">50.00</text><path  d="M 596 185
L 601 185" style="stroke-width:1;stroke:rgba(51,51,51,1.0);fill:none"/><text x="606" y="191" style="stroke-width:0;stroke:none;fill:rgba(51,51,51,1.0);font-size:12.8px;font-family:'Roboto Medium',sans-serif">70.00</text><path  d="M 596 142
L 601 142" style="stroke-width:1;stroke:rgba(51,51,51,1.0);fill:none"/><text x="606" y="148" style="stroke-width:0;stroke:none;fill:rgba(51,51,51,1.0);font-size:12.8px;font-family:'Roboto Medium',sans-serif">90.00</text><path  d="M 596 98
L 601 98" style="stroke-width:1;stroke:rgba(51,51,51,1.0);fill:none"/><text x="606" y="104" style="stroke-width:0;stroke:none;fill:rgba(51,51,51,1.0);font-size:12.8px;font-family:'Roboto Medium',sans-serif">110.00</text><path  d="M 596 54
L 601 54" style="stroke-width:1;stroke:rgba(51,51,51,1.0);fill:none"/><text x="606" y="60" style="stroke-width:0;stroke:none;fill:rgba(51,51,51,1.0);font-size:12.8px;font-family:'Roboto Medium',sans-serif">130.00</text><path  d="M 596 11
L 601 11" style="stroke-width:1;stroke:rgba(51,51,51,1.0);fill:none"/><text x="606" y="17" style="stroke-width:0;stroke:none;fill:rgba(51,51,51,1.0);font-size:12.8px;font-family:'Roboto Medium',sans-serif">150.00</text><path  d="M 38 150
L 57 91
L 76 229
L 94 166
L 113 240
L 131 131
L 150 93
L 168 211
L 187 231
L 206 41
L 224 59
L 243 24
L 261 43
L 280 83
L 298 122
L 317 176
L 336 152
L 354 207
L 373 124
L 391 115
L 410 192
L 428 131
L 447 159
L 466 198
L 484 21
L 503 126
L 521 78
L 540 144
L 558 155
L 577 104
L 595 268
L 595 273
L 38 273
L 38 150" style="stroke-width:0;stroke:none;fill:rgba(0,116,217,0.3)"/><path  d="M 38 150
L 57 91
L 76 229
L 94 166
L 113 240
L 131 131
L 150 93
L 168 211
L 187 231
L 206 41
L 224 59
L 243 24
L 261 43
L 280 83
L 298 122
L 317 176
L 336 152
L 354 207
L 373 124
L 391 115
L 410 192
L 428 131
L 447 159
L 466 198
L 484 21
L 503 126
L 521 78
L 540 144
L 558 155
L 577 104
L 595 268" style="stroke-width:1;stroke:rgba(0,116,217,0.3);fill:none"/><text x="225" y="33" style="stroke-width:0;stroke:none;fill:rgba(51,51,51,1.0);font-size:23.0px;font-family:'Roboto Medium',sans-serif">github.com/zkitefly</text></svg>