<svg xmlns="http://www.w3.org/2000/svg" xmlns:xlink="http://www.w3.org/1999/xlink" width="650" height="300">\n<path  d="M 0 0
L 650 0
L 650 300
L 0 300
L 0 0" style="stroke-width:0;stroke:rgba(255,255,255,1.0);fill:rgba(255,255,255,1.0)"/><path  d="M 38 11
L 580 11
L 580 273
L 38 273
L 38 11" style="stroke-width:0;stroke:rgba(255,255,255,1.0);fill:rgba(255,255,255,1.0)"/><path  d="M 38 273
L 580 273" style="stroke-width:1;stroke:rgba(51,51,51,1.0);fill:none"/><path  d="M 38 273
L 38 278" style="stroke-width:1;stroke:rgba(51,51,51,1.0);fill:none"/><text x="5" y="295" style="stroke-width:0;stroke:none;fill:rgba(51,51,51,1.0);font-size:12.8px;font-family:'Roboto Medium',sans-serif">2024-02-14</text><path  d="M 174 273
L 174 278" style="stroke-width:1;stroke:rgba(51,51,51,1.0);fill:none"/><text x="141" y="295" style="stroke-width:0;stroke:none;fill:rgba(51,51,51,1.0);font-size:12.8px;font-family:'Roboto Medium',sans-serif">2024-02-22</text><path  d="M 309 273
L 309 278" style="stroke-width:1;stroke:rgba(51,51,51,1.0);fill:none"/><text x="276" y="295" style="stroke-width:0;stroke:none;fill:rgba(51,51,51,1.0);font-size:12.8px;font-family:'Roboto Medium',sans-serif">2024-02-29</text><path  d="M 445 273
L 445 278" style="stroke-width:1;stroke:rgba(51,51,51,1.0);fill:none"/><text x="412" y="295" style="stroke-width:0;stroke:none;fill:rgba(51,51,51,1.0);font-size:12.8px;font-family:'Roboto Medium',sans-serif">2024-03-08</text><path  d="M 580 273
L 580 278" style="stroke-width:1;stroke:rgba(51,51,51,1.0);fill:none"/><text x="547" y="295" style="stroke-width:0;stroke:none;fill:rgba(51,51,51,1.0);font-size:12.8px;font-family:'Roboto Medium',sans-serif">2024-03-15</text><path  d="M 581 273
L 581 11" style="stroke-width:1;stroke:rgba(51,51,51,1.0);fill:none"/><path  d="M 581 273
L 586 273" style="stroke-width:1;stroke:rgba(51,51,51,1.0);fill:none"/><text x="591" y="279" style="stroke-width:0;stroke:none;fill:rgba(51,51,51,1.0);font-size:12.8px;font-family:'Roboto Medium',sans-serif">0.00</text><path  d="M 581 229
L 586 229" style="stroke-width:1;stroke:rgba(51,51,51,1.0);fill:none"/><text x="591" y="235" style="stroke-width:0;stroke:none;fill:rgba(51,51,51,1.0);font-size:12.8px;font-family:'Roboto Medium',sans-serif">7500.00</text><path  d="M 581 185
L 586 185" style="stroke-width:1;stroke:rgba(51,51,51,1.0);fill:none"/><text x="591" y="191" style="stroke-width:0;stroke:none;fill:rgba(51,51,51,1.0);font-size:12.8px;font-family:'Roboto Medium',sans-serif">15000.00</text><path  d="M 581 142
L 586 142" style="stroke-width:1;stroke:rgba(51,51,51,1.0);fill:none"/><text x="591" y="148" style="stroke-width:0;stroke:none;fill:rgba(51,51,51,1.0);font-size:12.8px;font-family:'Roboto Medium',sans-serif">22500.00</text><path  d="M 581 98
L 586 98" style="stroke-width:1;stroke:rgba(51,51,51,1.0);fill:none"/><text x="591" y="104" style="stroke-width:0;stroke:none;fill:rgba(51,51,51,1.0);font-size:12.8px;font-family:'Roboto Medium',sans-serif">30000.00</text><path  d="M 581 54
L 586 54" style="stroke-width:1;stroke:rgba(51,51,51,1.0);fill:none"/><text x="591" y="60" style="stroke-width:0;stroke:none;fill:rgba(51,51,51,1.0);font-size:12.8px;font-family:'Roboto Medium',sans-serif">37500.00</text><path  d="M 581 11
L 586 11" style="stroke-width:1;stroke:rgba(51,51,51,1.0);fill:none"/><text x="591" y="17" style="stroke-width:0;stroke:none;fill:rgba(51,51,51,1.0);font-size:12.8px;font-family:'Roboto Medium',sans-serif">45000.00</text><path  d="M 38 269
L 57 269
L 75 270
L 93 271
L 111 271
L 129 270
L 147 269
L 165 265
L 183 268
L 201 271
L 219 271
L 237 271
L 255 270
L 273 270
L 291 270
L 309 271
L 328 271
L 346 271
L 364 271
L 382 270
L 400 270
L 418 270
L 436 270
L 454 271
L 472 271
L 490 268
L 508 268
L 526 268
L 544 269
L 562 269
L 580 16
L 580 273
L 38 273
L 38 269" style="stroke-width:0;stroke:none;fill:rgba(0,116,217,0.3)"/><path  d="M 38 269
L 57 269
L 75 270
L 93 271
L 111 271
L 129 270
L 147 269
L 165 265
L 183 268
L 201 271
L 219 271
L 237 271
L 255 270
L 273 270
L 291 270
L 309 271
L 328 271
L 346 271
L 364 271
L 382 270
L 400 270
L 418 270
L 436 270
L 454 271
L 472 271
L 490 268
L 508 268
L 526 268
L 544 269
L 562 269
L 580 16" style="stroke-width:1;stroke:rgba(0,116,217,0.3);fill:none"/><text x="216" y="33" style="stroke-width:0;stroke:none;fill:rgba(51,51,51,1.0);font-size:23.0px;font-family:'Roboto Medium',sans-serif">hits.seeyoufarm.com</text></svg>