<svg xmlns="http://www.w3.org/2000/svg" xmlns:xlink="http://www.w3.org/1999/xlink" width="650" height="300">\n<path  d="M 0 0
L 650 0
L 650 300
L 0 300
L 0 0" style="stroke-width:0;stroke:rgba(255,255,255,1.0);fill:rgba(255,255,255,1.0)"/><path  d="M 38 11
L 580 11
L 580 273
L 38 273
L 38 11" style="stroke-width:0;stroke:rgba(255,255,255,1.0);fill:rgba(255,255,255,1.0)"/><path  d="M 38 273
L 580 273" style="stroke-width:1;stroke:rgba(51,51,51,1.0);fill:none"/><path  d="M 38 273
L 38 278" style="stroke-width:1;stroke:rgba(51,51,51,1.0);fill:none"/><text x="5" y="295" style="stroke-width:0;stroke:none;fill:rgba(51,51,51,1.0);font-size:12.8px;font-family:'Roboto Medium',sans-serif">2024-04-08</text><path  d="M 174 273
L 174 278" style="stroke-width:1;stroke:rgba(51,51,51,1.0);fill:none"/><text x="141" y="295" style="stroke-width:0;stroke:none;fill:rgba(51,51,51,1.0);font-size:12.8px;font-family:'Roboto Medium',sans-serif">2024-04-15</text><path  d="M 309 273
L 309 278" style="stroke-width:1;stroke:rgba(51,51,51,1.0);fill:none"/><text x="276" y="295" style="stroke-width:0;stroke:none;fill:rgba(51,51,51,1.0);font-size:12.8px;font-family:'Roboto Medium',sans-serif">2024-04-23</text><path  d="M 445 273
L 445 278" style="stroke-width:1;stroke:rgba(51,51,51,1.0);fill:none"/><text x="412" y="295" style="stroke-width:0;stroke:none;fill:rgba(51,51,51,1.0);font-size:12.8px;font-family:'Roboto Medium',sans-serif">2024-04-30</text><path  d="M 580 273
L 580 278" style="stroke-width:1;stroke:rgba(51,51,51,1.0);fill:none"/><text x="547" y="295" style="stroke-width:0;stroke:none;fill:rgba(51,51,51,1.0);font-size:12.8px;font-family:'Roboto Medium',sans-serif">2024-05-08</text><path  d="M 581 273
L 581 11" style="stroke-width:1;stroke:rgba(51,51,51,1.0);fill:none"/><path  d="M 581 273
L 586 273" style="stroke-width:1;stroke:rgba(51,51,51,1.0);fill:none"/><text x="591" y="279" style="stroke-width:0;stroke:none;fill:rgba(51,51,51,1.0);font-size:12.8px;font-family:'Roboto Medium',sans-serif">0.00</text><path  d="M 581 229
L 586 229" style="stroke-width:1;stroke:rgba(51,51,51,1.0);fill:none"/><text x="591" y="235" style="stroke-width:0;stroke:none;fill:rgba(51,51,51,1.0);font-size:12.8px;font-family:'Roboto Medium',sans-serif">2500.00</text><path  d="M 581 185
L 586 185" style="stroke-width:1;stroke:rgba(51,51,51,1.0);fill:none"/><text x="591" y="191" style="stroke-width:0;stroke:none;fill:rgba(51,51,51,1.0);font-size:12.8px;font-family:'Roboto Medium',sans-serif">5000.00</text><path  d="M 581 142
L 586 142" style="stroke-width:1;stroke:rgba(51,51,51,1.0);fill:none"/><text x="591" y="148" style="stroke-width:0;stroke:none;fill:rgba(51,51,51,1.0);font-size:12.8px;font-family:'Roboto Medium',sans-serif">7500.00</text><path  d="M 581 98
L 586 98" style="stroke-width:1;stroke:rgba(51,51,51,1.0);fill:none"/><text x="591" y="104" style="stroke-width:0;stroke:none;fill:rgba(51,51,51,1.0);font-size:12.8px;font-family:'Roboto Medium',sans-serif">10000.00</text><path  d="M 581 54
L 586 54" style="stroke-width:1;stroke:rgba(51,51,51,1.0);fill:none"/><text x="591" y="60" style="stroke-width:0;stroke:none;fill:rgba(51,51,51,1.0);font-size:12.8px;font-family:'Roboto Medium',sans-serif">12500.00</text><path  d="M 581 11
L 586 11" style="stroke-width:1;stroke:rgba(51,51,51,1.0);fill:none"/><text x="591" y="17" style="stroke-width:0;stroke:none;fill:rgba(51,51,51,1.0);font-size:12.8px;font-family:'Roboto Medium',sans-serif">15000.00</text><path  d="M 38 125
L 57 131
L 75 135
L 93 136
L 111 97
L 129 20
L 147 80
L 165 164
L 183 162
L 201 161
L 219 165
L 237 117
L 255 75
L 273 149
L 291 200
L 309 200
L 328 204
L 346 202
L 364 182
L 382 156
L 400 199
L 418 204
L 436 160
L 454 109
L 472 138
L 490 149
L 508 159
L 526 183
L 544 210
L 562 212
L 580 256
L 580 273
L 38 273
L 38 125" style="stroke-width:0;stroke:none;fill:rgba(0,116,217,0.3)"/><path  d="M 38 125
L 57 131
L 75 135
L 93 136
L 111 97
L 129 20
L 147 80
L 165 164
L 183 162
L 201 161
L 219 165
L 237 117
L 255 75
L 273 149
L 291 200
L 309 200
L 328 204
L 346 202
L 364 182
L 382 156
L 400 199
L 418 204
L 436 160
L 454 109
L 472 138
L 490 149
L 508 159
L 526 183
L 544 210
L 562 212
L 580 256" style="stroke-width:1;stroke:rgba(0,116,217,0.3);fill:none"/><text x="131" y="33" style="stroke-width:0;stroke:none;fill:rgba(51,51,51,1.0);font-size:23.0px;font-family:'Roboto Medium',sans-serif">docs.hmcl.net/changelog/stable.html</text></svg>