<svg xmlns="http://www.w3.org/2000/svg" xmlns:xlink="http://www.w3.org/1999/xlink" width="650" height="300">\n<path  d="M 0 0
L 650 0
L 650 300
L 0 300
L 0 0" style="stroke-width:0;stroke:rgba(255,255,255,1.0);fill:rgba(255,255,255,1.0)"/><path  d="M 38 11
L 595 11
L 595 273
L 38 273
L 38 11" style="stroke-width:0;stroke:rgba(255,255,255,1.0);fill:rgba(255,255,255,1.0)"/><path  d="M 38 273
L 595 273" style="stroke-width:1;stroke:rgba(51,51,51,1.0);fill:none"/><path  d="M 38 273
L 38 278" style="stroke-width:1;stroke:rgba(51,51,51,1.0);fill:none"/><text x="5" y="295" style="stroke-width:0;stroke:none;fill:rgba(51,51,51,1.0);font-size:12.8px;font-family:'Roboto Medium',sans-serif">2024-01-21</text><path  d="M 178 273
L 178 278" style="stroke-width:1;stroke:rgba(51,51,51,1.0);fill:none"/><text x="145" y="295" style="stroke-width:0;stroke:none;fill:rgba(51,51,51,1.0);font-size:12.8px;font-family:'Roboto Medium',sans-serif">2024-01-28</text><path  d="M 317 273
L 317 278" style="stroke-width:1;stroke:rgba(51,51,51,1.0);fill:none"/><text x="284" y="295" style="stroke-width:0;stroke:none;fill:rgba(51,51,51,1.0);font-size:12.8px;font-family:'Roboto Medium',sans-serif">2024-02-05</text><path  d="M 456 273
L 456 278" style="stroke-width:1;stroke:rgba(51,51,51,1.0);fill:none"/><text x="423" y="295" style="stroke-width:0;stroke:none;fill:rgba(51,51,51,1.0);font-size:12.8px;font-family:'Roboto Medium',sans-serif">2024-02-12</text><path  d="M 595 273
L 595 278" style="stroke-width:1;stroke:rgba(51,51,51,1.0);fill:none"/><text x="562" y="295" style="stroke-width:0;stroke:none;fill:rgba(51,51,51,1.0);font-size:12.8px;font-family:'Roboto Medium',sans-serif">2024-02-20</text><path  d="M 596 273
L 596 11" style="stroke-width:1;stroke:rgba(51,51,51,1.0);fill:none"/><path  d="M 596 273
L 601 273" style="stroke-width:1;stroke:rgba(51,51,51,1.0);fill:none"/><text x="606" y="279" style="stroke-width:0;stroke:none;fill:rgba(51,51,51,1.0);font-size:12.8px;font-family:'Roboto Medium',sans-serif">160.00</text><path  d="M 596 228
L 601 228" style="stroke-width:1;stroke:rgba(51,51,51,1.0);fill:none"/><text x="606" y="234" style="stroke-width:0;stroke:none;fill:rgba(51,51,51,1.0);font-size:12.8px;font-family:'Roboto Medium',sans-serif">244.00</text><path  d="M 596 185
L 601 185" style="stroke-width:1;stroke:rgba(51,51,51,1.0);fill:none"/><text x="606" y="191" style="stroke-width:0;stroke:none;fill:rgba(51,51,51,1.0);font-size:12.8px;font-family:'Roboto Medium',sans-serif">327.00</text><path  d="M 596 142
L 601 142" style="stroke-width:1;stroke:rgba(51,51,51,1.0);fill:none"/><text x="606" y="148" style="stroke-width:0;stroke:none;fill:rgba(51,51,51,1.0);font-size:12.8px;font-family:'Roboto Medium',sans-serif">410.00</text><path  d="M 596 97
L 601 97" style="stroke-width:1;stroke:rgba(51,51,51,1.0);fill:none"/><text x="606" y="103" style="stroke-width:0;stroke:none;fill:rgba(51,51,51,1.0);font-size:12.8px;font-family:'Roboto Medium',sans-serif">494.00</text><path  d="M 596 54
L 601 54" style="stroke-width:1;stroke:rgba(51,51,51,1.0);fill:none"/><text x="606" y="60" style="stroke-width:0;stroke:none;fill:rgba(51,51,51,1.0);font-size:12.8px;font-family:'Roboto Medium',sans-serif">577.00</text><path  d="M 596 11
L 601 11" style="stroke-width:1;stroke:rgba(51,51,51,1.0);fill:none"/><text x="606" y="17" style="stroke-width:0;stroke:none;fill:rgba(51,51,51,1.0);font-size:12.8px;font-family:'Roboto Medium',sans-serif">660.00</text><path  d="M 38 209
L 57 148
L 76 186
L 94 163
L 113 162
L 131 143
L 150 220
L 168 223
L 187 161
L 206 153
L 224 158
L 243 161
L 261 186
L 280 223
L 298 200
L 317 178
L 336 154
L 354 149
L 373 211
L 391 225
L 410 251
L 428 219
L 447 206
L 466 71
L 484 11
L 503 78
L 521 139
L 540 207
L 558 197
L 577 94
L 595 270
L 595 273
L 38 273
L 38 209" style="stroke-width:0;stroke:none;fill:rgba(0,116,217,0.3)"/><path  d="M 38 209
L 57 148
L 76 186
L 94 163
L 113 162
L 131 143
L 150 220
L 168 223
L 187 161
L 206 153
L 224 158
L 243 161
L 261 186
L 280 223
L 298 200
L 317 178
L 336 154
L 354 149
L 373 211
L 391 225
L 410 251
L 428 219
L 447 206
L 466 71
L 484 11
L 503 78
L 521 139
L 540 207
L 558 197
L 577 94
L 595 270" style="stroke-width:1;stroke:rgba(0,116,217,0.3);fill:none"/><text x="216" y="33" style="stroke-width:0;stroke:none;fill:rgba(51,51,51,1.0);font-size:23.0px;font-family:'Roboto Medium',sans-serif">hits.seeyoufarm.com</text></svg>