<svg xmlns="http://www.w3.org/2000/svg" xmlns:xlink="http://www.w3.org/1999/xlink" width="650" height="300">\n<path  d="M 0 0
L 650 0
L 650 300
L 0 300
L 0 0" style="stroke-width:0;stroke:rgba(255,255,255,1.0);fill:rgba(255,255,255,1.0)"/><path  d="M 38 11
L 595 11
L 595 273
L 38 273
L 38 11" style="stroke-width:0;stroke:rgba(255,255,255,1.0);fill:rgba(255,255,255,1.0)"/><path  d="M 38 273
L 595 273" style="stroke-width:1;stroke:rgba(51,51,51,1.0);fill:none"/><path  d="M 38 273
L 38 278" style="stroke-width:1;stroke:rgba(51,51,51,1.0);fill:none"/><text x="5" y="295" style="stroke-width:0;stroke:none;fill:rgba(51,51,51,1.0);font-size:12.8px;font-family:'Roboto Medium',sans-serif">2024-06-24</text><path  d="M 178 273
L 178 278" style="stroke-width:1;stroke:rgba(51,51,51,1.0);fill:none"/><text x="145" y="295" style="stroke-width:0;stroke:none;fill:rgba(51,51,51,1.0);font-size:12.8px;font-family:'Roboto Medium',sans-serif">2024-07-01</text><path  d="M 317 273
L 317 278" style="stroke-width:1;stroke:rgba(51,51,51,1.0);fill:none"/><text x="284" y="295" style="stroke-width:0;stroke:none;fill:rgba(51,51,51,1.0);font-size:12.8px;font-family:'Roboto Medium',sans-serif">2024-07-09</text><path  d="M 456 273
L 456 278" style="stroke-width:1;stroke:rgba(51,51,51,1.0);fill:none"/><text x="423" y="295" style="stroke-width:0;stroke:none;fill:rgba(51,51,51,1.0);font-size:12.8px;font-family:'Roboto Medium',sans-serif">2024-07-16</text><path  d="M 595 273
L 595 278" style="stroke-width:1;stroke:rgba(51,51,51,1.0);fill:none"/><text x="562" y="295" style="stroke-width:0;stroke:none;fill:rgba(51,51,51,1.0);font-size:12.8px;font-family:'Roboto Medium',sans-serif">2024-07-24</text><path  d="M 596 273
L 596 11" style="stroke-width:1;stroke:rgba(51,51,51,1.0);fill:none"/><path  d="M 596 273
L 601 273" style="stroke-width:1;stroke:rgba(51,51,51,1.0);fill:none"/><text x="606" y="279" style="stroke-width:0;stroke:none;fill:rgba(51,51,51,1.0);font-size:12.8px;font-family:'Roboto Medium',sans-serif">30.00</text><path  d="M 596 229
L 601 229" style="stroke-width:1;stroke:rgba(51,51,51,1.0);fill:none"/><text x="606" y="235" style="stroke-width:0;stroke:none;fill:rgba(51,51,51,1.0);font-size:12.8px;font-family:'Roboto Medium',sans-serif">115.00</text><path  d="M 596 185
L 601 185" style="stroke-width:1;stroke:rgba(51,51,51,1.0);fill:none"/><text x="606" y="191" style="stroke-width:0;stroke:none;fill:rgba(51,51,51,1.0);font-size:12.8px;font-family:'Roboto Medium',sans-serif">200.00</text><path  d="M 596 142
L 601 142" style="stroke-width:1;stroke:rgba(51,51,51,1.0);fill:none"/><text x="606" y="148" style="stroke-width:0;stroke:none;fill:rgba(51,51,51,1.0);font-size:12.8px;font-family:'Roboto Medium',sans-serif">285.00</text><path  d="M 596 98
L 601 98" style="stroke-width:1;stroke:rgba(51,51,51,1.0);fill:none"/><text x="606" y="104" style="stroke-width:0;stroke:none;fill:rgba(51,51,51,1.0);font-size:12.8px;font-family:'Roboto Medium',sans-serif">370.00</text><path  d="M 596 54
L 601 54" style="stroke-width:1;stroke:rgba(51,51,51,1.0);fill:none"/><text x="606" y="60" style="stroke-width:0;stroke:none;fill:rgba(51,51,51,1.0);font-size:12.8px;font-family:'Roboto Medium',sans-serif">455.00</text><path  d="M 596 11
L 601 11" style="stroke-width:1;stroke:rgba(51,51,51,1.0);fill:none"/><text x="606" y="17" style="stroke-width:0;stroke:none;fill:rgba(51,51,51,1.0);font-size:12.8px;font-family:'Roboto Medium',sans-serif">540.00</text><path  d="M 38 131
L 57 107
L 76 113
L 94 110
L 113 140
L 131 172
L 150 170
L 168 110
L 187 101
L 206 100
L 224 132
L 243 133
L 261 183
L 280 78
L 298 34
L 317 95
L 336 109
L 354 101
L 373 71
L 391 158
L 410 140
L 428 118
L 447 118
L 466 118
L 484 119
L 503 127
L 521 169
L 540 161
L 558 120
L 577 12
L 595 269
L 595 273
L 38 273
L 38 131" style="stroke-width:0;stroke:none;fill:rgba(0,116,217,0.3)"/><path  d="M 38 131
L 57 107
L 76 113
L 94 110
L 113 140
L 131 172
L 150 170
L 168 110
L 187 101
L 206 100
L 224 132
L 243 133
L 261 183
L 280 78
L 298 34
L 317 95
L 336 109
L 354 101
L 373 71
L 391 158
L 410 140
L 428 118
L 447 118
L 466 118
L 484 119
L 503 127
L 521 169
L 540 161
L 558 120
L 577 12
L 595 269" style="stroke-width:1;stroke:rgba(0,116,217,0.3);fill:none"/><text x="216" y="33" style="stroke-width:0;stroke:none;fill:rgba(51,51,51,1.0);font-size:23.0px;font-family:'Roboto Medium',sans-serif">hits.seeyoufarm.com</text></svg>