<svg xmlns="http://www.w3.org/2000/svg" xmlns:xlink="http://www.w3.org/1999/xlink" width="650" height="300">\n<path  d="M 0 0
L 650 0
L 650 300
L 0 300
L 0 0" style="stroke-width:0;stroke:rgba(255,255,255,1.0);fill:rgba(255,255,255,1.0)"/><path  d="M 38 11
L 602 11
L 602 273
L 38 273
L 38 11" style="stroke-width:0;stroke:rgba(255,255,255,1.0);fill:rgba(255,255,255,1.0)"/><path  d="M 38 273
L 602 273" style="stroke-width:1;stroke:rgba(51,51,51,1.0);fill:none"/><path  d="M 38 273
L 38 278" style="stroke-width:1;stroke:rgba(51,51,51,1.0);fill:none"/><text x="5" y="295" style="stroke-width:0;stroke:none;fill:rgba(51,51,51,1.0);font-size:12.8px;font-family:'Roboto Medium',sans-serif">2024-05-23</text><path  d="M 179 273
L 179 278" style="stroke-width:1;stroke:rgba(51,51,51,1.0);fill:none"/><text x="146" y="295" style="stroke-width:0;stroke:none;fill:rgba(51,51,51,1.0);font-size:12.8px;font-family:'Roboto Medium',sans-serif">2024-05-30</text><path  d="M 320 273
L 320 278" style="stroke-width:1;stroke:rgba(51,51,51,1.0);fill:none"/><text x="287" y="295" style="stroke-width:0;stroke:none;fill:rgba(51,51,51,1.0);font-size:12.8px;font-family:'Roboto Medium',sans-serif">2024-06-07</text><path  d="M 461 273
L 461 278" style="stroke-width:1;stroke:rgba(51,51,51,1.0);fill:none"/><text x="428" y="295" style="stroke-width:0;stroke:none;fill:rgba(51,51,51,1.0);font-size:12.8px;font-family:'Roboto Medium',sans-serif">2024-06-14</text><path  d="M 602 273
L 602 278" style="stroke-width:1;stroke:rgba(51,51,51,1.0);fill:none"/><text x="569" y="295" style="stroke-width:0;stroke:none;fill:rgba(51,51,51,1.0);font-size:12.8px;font-family:'Roboto Medium',sans-serif">2024-06-22</text><path  d="M 603 273
L 603 11" style="stroke-width:1;stroke:rgba(51,51,51,1.0);fill:none"/><path  d="M 603 273
L 608 273" style="stroke-width:1;stroke:rgba(51,51,51,1.0);fill:none"/><text x="613" y="279" style="stroke-width:0;stroke:none;fill:rgba(51,51,51,1.0);font-size:12.8px;font-family:'Roboto Medium',sans-serif">2.00</text><path  d="M 603 229
L 608 229" style="stroke-width:1;stroke:rgba(51,51,51,1.0);fill:none"/><text x="613" y="235" style="stroke-width:0;stroke:none;fill:rgba(51,51,51,1.0);font-size:12.8px;font-family:'Roboto Medium',sans-serif">6.50</text><path  d="M 603 185
L 608 185" style="stroke-width:1;stroke:rgba(51,51,51,1.0);fill:none"/><text x="613" y="191" style="stroke-width:0;stroke:none;fill:rgba(51,51,51,1.0);font-size:12.8px;font-family:'Roboto Medium',sans-serif">11.00</text><path  d="M 603 142
L 608 142" style="stroke-width:1;stroke:rgba(51,51,51,1.0);fill:none"/><text x="613" y="148" style="stroke-width:0;stroke:none;fill:rgba(51,51,51,1.0);font-size:12.8px;font-family:'Roboto Medium',sans-serif">15.50</text><path  d="M 603 98
L 608 98" style="stroke-width:1;stroke:rgba(51,51,51,1.0);fill:none"/><text x="613" y="104" style="stroke-width:0;stroke:none;fill:rgba(51,51,51,1.0);font-size:12.8px;font-family:'Roboto Medium',sans-serif">20.00</text><path  d="M 603 54
L 608 54" style="stroke-width:1;stroke:rgba(51,51,51,1.0);fill:none"/><text x="613" y="60" style="stroke-width:0;stroke:none;fill:rgba(51,51,51,1.0);font-size:12.8px;font-family:'Roboto Medium',sans-serif">24.50</text><path  d="M 603 11
L 608 11" style="stroke-width:1;stroke:rgba(51,51,51,1.0);fill:none"/><text x="613" y="17" style="stroke-width:0;stroke:none;fill:rgba(51,51,51,1.0);font-size:12.8px;font-family:'Roboto Medium',sans-serif">29.00</text><path  d="M 38 214
L 57 166
L 76 127
L 95 11
L 114 224
L 132 234
L 151 224
L 170 273
L 189 205
L 208 117
L 226 175
L 245 224
L 264 243
L 283 214
L 302 185
L 320 166
L 339 49
L 358 166
L 377 195
L 396 146
L 414 234
L 433 214
L 452 185
L 471 49
L 490 195
L 508 127
L 527 127
L 546 195
L 565 78
L 584 166
L 602 243
L 602 273
L 38 273
L 38 214" style="stroke-width:0;stroke:none;fill:rgba(0,116,217,0.3)"/><path  d="M 38 214
L 57 166
L 76 127
L 95 11
L 114 224
L 132 234
L 151 224
L 170 273
L 189 205
L 208 117
L 226 175
L 245 224
L 264 243
L 283 214
L 302 185
L 320 166
L 339 49
L 358 166
L 377 195
L 396 146
L 414 234
L 433 214
L 452 185
L 471 49
L 490 195
L 508 127
L 527 127
L 546 195
L 565 78
L 584 166
L 602 243" style="stroke-width:1;stroke:rgba(0,116,217,0.3);fill:none"/><text x="130" y="33" style="stroke-width:0;stroke:none;fill:rgba(51,51,51,1.0);font-size:23.0px;font-family:'Roboto Medium',sans-serif">hmcl-snapshot-update.netlify.app/prs</text></svg>