<svg xmlns="http://www.w3.org/2000/svg" xmlns:xlink="http://www.w3.org/1999/xlink" width="650" height="300">\n<path  d="M 0 0
L 650 0
L 650 300
L 0 300
L 0 0" style="stroke-width:0;stroke:rgba(255,255,255,1.0);fill:rgba(255,255,255,1.0)"/><path  d="M 38 11
L 602 11
L 602 273
L 38 273
L 38 11" style="stroke-width:0;stroke:rgba(255,255,255,1.0);fill:rgba(255,255,255,1.0)"/><path  d="M 38 273
L 602 273" style="stroke-width:1;stroke:rgba(51,51,51,1.0);fill:none"/><path  d="M 38 273
L 38 278" style="stroke-width:1;stroke:rgba(51,51,51,1.0);fill:none"/><text x="5" y="295" style="stroke-width:0;stroke:none;fill:rgba(51,51,51,1.0);font-size:12.8px;font-family:'Roboto Medium',sans-serif">2024-03-12</text><path  d="M 179 273
L 179 278" style="stroke-width:1;stroke:rgba(51,51,51,1.0);fill:none"/><text x="146" y="295" style="stroke-width:0;stroke:none;fill:rgba(51,51,51,1.0);font-size:12.8px;font-family:'Roboto Medium',sans-serif">2024-03-19</text><path  d="M 320 273
L 320 278" style="stroke-width:1;stroke:rgba(51,51,51,1.0);fill:none"/><text x="287" y="295" style="stroke-width:0;stroke:none;fill:rgba(51,51,51,1.0);font-size:12.8px;font-family:'Roboto Medium',sans-serif">2024-03-27</text><path  d="M 461 273
L 461 278" style="stroke-width:1;stroke:rgba(51,51,51,1.0);fill:none"/><text x="428" y="295" style="stroke-width:0;stroke:none;fill:rgba(51,51,51,1.0);font-size:12.8px;font-family:'Roboto Medium',sans-serif">2024-04-03</text><path  d="M 602 273
L 602 278" style="stroke-width:1;stroke:rgba(51,51,51,1.0);fill:none"/><text x="569" y="295" style="stroke-width:0;stroke:none;fill:rgba(51,51,51,1.0);font-size:12.8px;font-family:'Roboto Medium',sans-serif">2024-04-11</text><path  d="M 603 273
L 603 11" style="stroke-width:1;stroke:rgba(51,51,51,1.0);fill:none"/><path  d="M 603 273
L 608 273" style="stroke-width:1;stroke:rgba(51,51,51,1.0);fill:none"/><text x="613" y="279" style="stroke-width:0;stroke:none;fill:rgba(51,51,51,1.0);font-size:12.8px;font-family:'Roboto Medium',sans-serif">3.00</text><path  d="M 603 229
L 608 229" style="stroke-width:1;stroke:rgba(51,51,51,1.0);fill:none"/><text x="613" y="235" style="stroke-width:0;stroke:none;fill:rgba(51,51,51,1.0);font-size:12.8px;font-family:'Roboto Medium',sans-serif">11.00</text><path  d="M 603 185
L 608 185" style="stroke-width:1;stroke:rgba(51,51,51,1.0);fill:none"/><text x="613" y="191" style="stroke-width:0;stroke:none;fill:rgba(51,51,51,1.0);font-size:12.8px;font-family:'Roboto Medium',sans-serif">19.00</text><path  d="M 603 142
L 608 142" style="stroke-width:1;stroke:rgba(51,51,51,1.0);fill:none"/><text x="613" y="148" style="stroke-width:0;stroke:none;fill:rgba(51,51,51,1.0);font-size:12.8px;font-family:'Roboto Medium',sans-serif">27.00</text><path  d="M 603 98
L 608 98" style="stroke-width:1;stroke:rgba(51,51,51,1.0);fill:none"/><text x="613" y="104" style="stroke-width:0;stroke:none;fill:rgba(51,51,51,1.0);font-size:12.8px;font-family:'Roboto Medium',sans-serif">35.00</text><path  d="M 603 54
L 608 54" style="stroke-width:1;stroke:rgba(51,51,51,1.0);fill:none"/><text x="613" y="60" style="stroke-width:0;stroke:none;fill:rgba(51,51,51,1.0);font-size:12.8px;font-family:'Roboto Medium',sans-serif">43.00</text><path  d="M 603 11
L 608 11" style="stroke-width:1;stroke:rgba(51,51,51,1.0);fill:none"/><text x="613" y="17" style="stroke-width:0;stroke:none;fill:rgba(51,51,51,1.0);font-size:12.8px;font-family:'Roboto Medium',sans-serif">51.00</text><path  d="M 38 207
L 57 174
L 76 207
L 95 147
L 114 131
L 132 11
L 151 169
L 170 212
L 189 147
L 208 131
L 226 136
L 245 87
L 264 49
L 283 212
L 302 185
L 320 218
L 339 212
L 358 223
L 377 158
L 396 196
L 414 207
L 433 212
L 452 196
L 471 147
L 490 174
L 508 229
L 527 207
L 546 240
L 565 229
L 584 218
L 602 273
L 602 273
L 38 273
L 38 207" style="stroke-width:0;stroke:none;fill:rgba(0,116,217,0.3)"/><path  d="M 38 207
L 57 174
L 76 207
L 95 147
L 114 131
L 132 11
L 151 169
L 170 212
L 189 147
L 208 131
L 226 136
L 245 87
L 264 49
L 283 212
L 302 185
L 320 218
L 339 212
L 358 223
L 377 158
L 396 196
L 414 207
L 433 212
L 452 196
L 471 147
L 490 174
L 508 229
L 527 207
L 546 240
L 565 229
L 584 218
L 602 273" style="stroke-width:1;stroke:rgba(0,116,217,0.3);fill:none"/><text x="130" y="33" style="stroke-width:0;stroke:none;fill:rgba(51,51,51,1.0);font-size:23.0px;font-family:'Roboto Medium',sans-serif">hmcl-snapshot-update.netlify.app/prs</text></svg>