<svg xmlns="http://www.w3.org/2000/svg" xmlns:xlink="http://www.w3.org/1999/xlink" width="650" height="300">\n<path  d="M 0 0
L 650 0
L 650 300
L 0 300
L 0 0" style="stroke-width:0;stroke:rgba(255,255,255,1.0);fill:rgba(255,255,255,1.0)"/><path  d="M 38 11
L 566 11
L 566 273
L 38 273
L 38 11" style="stroke-width:0;stroke:rgba(255,255,255,1.0);fill:rgba(255,255,255,1.0)"/><path  d="M 38 273
L 566 273" style="stroke-width:1;stroke:rgba(51,51,51,1.0);fill:none"/><path  d="M 38 273
L 38 278" style="stroke-width:1;stroke:rgba(51,51,51,1.0);fill:none"/><text x="5" y="295" style="stroke-width:0;stroke:none;fill:rgba(51,51,51,1.0);font-size:12.8px;font-family:'Roboto Medium',sans-serif">2024-02-21</text><path  d="M 170 273
L 170 278" style="stroke-width:1;stroke:rgba(51,51,51,1.0);fill:none"/><text x="137" y="295" style="stroke-width:0;stroke:none;fill:rgba(51,51,51,1.0);font-size:12.8px;font-family:'Roboto Medium',sans-serif">2024-02-28</text><path  d="M 302 273
L 302 278" style="stroke-width:1;stroke:rgba(51,51,51,1.0);fill:none"/><text x="269" y="295" style="stroke-width:0;stroke:none;fill:rgba(51,51,51,1.0);font-size:12.8px;font-family:'Roboto Medium',sans-serif">2024-03-07</text><path  d="M 434 273
L 434 278" style="stroke-width:1;stroke:rgba(51,51,51,1.0);fill:none"/><text x="401" y="295" style="stroke-width:0;stroke:none;fill:rgba(51,51,51,1.0);font-size:12.8px;font-family:'Roboto Medium',sans-serif">2024-03-14</text><path  d="M 566 273
L 566 278" style="stroke-width:1;stroke:rgba(51,51,51,1.0);fill:none"/><text x="533" y="295" style="stroke-width:0;stroke:none;fill:rgba(51,51,51,1.0);font-size:12.8px;font-family:'Roboto Medium',sans-serif">2024-03-22</text><path  d="M 567 273
L 567 11" style="stroke-width:1;stroke:rgba(51,51,51,1.0);fill:none"/><path  d="M 567 273
L 572 273" style="stroke-width:1;stroke:rgba(51,51,51,1.0);fill:none"/><text x="577" y="279" style="stroke-width:0;stroke:none;fill:rgba(51,51,51,1.0);font-size:12.8px;font-family:'Roboto Medium',sans-serif">0.00</text><path  d="M 567 229
L 572 229" style="stroke-width:1;stroke:rgba(51,51,51,1.0);fill:none"/><text x="577" y="235" style="stroke-width:0;stroke:none;fill:rgba(51,51,51,1.0);font-size:12.8px;font-family:'Roboto Medium',sans-serif">1120000.00</text><path  d="M 567 185
L 572 185" style="stroke-width:1;stroke:rgba(51,51,51,1.0);fill:none"/><text x="577" y="191" style="stroke-width:0;stroke:none;fill:rgba(51,51,51,1.0);font-size:12.8px;font-family:'Roboto Medium',sans-serif">2240000.00</text><path  d="M 567 142
L 572 142" style="stroke-width:1;stroke:rgba(51,51,51,1.0);fill:none"/><text x="577" y="148" style="stroke-width:0;stroke:none;fill:rgba(51,51,51,1.0);font-size:12.8px;font-family:'Roboto Medium',sans-serif">3350000.00</text><path  d="M 567 98
L 572 98" style="stroke-width:1;stroke:rgba(51,51,51,1.0);fill:none"/><text x="577" y="104" style="stroke-width:0;stroke:none;fill:rgba(51,51,51,1.0);font-size:12.8px;font-family:'Roboto Medium',sans-serif">4470000.00</text><path  d="M 567 54
L 572 54" style="stroke-width:1;stroke:rgba(51,51,51,1.0);fill:none"/><text x="577" y="60" style="stroke-width:0;stroke:none;fill:rgba(51,51,51,1.0);font-size:12.8px;font-family:'Roboto Medium',sans-serif">5590000.00</text><path  d="M 567 11
L 572 11" style="stroke-width:1;stroke:rgba(51,51,51,1.0);fill:none"/><text x="577" y="17" style="stroke-width:0;stroke:none;fill:rgba(51,51,51,1.0);font-size:12.8px;font-family:'Roboto Medium',sans-serif">6700000.00</text><path  d="M 38 272
L 56 272
L 74 272
L 91 272
L 109 272
L 126 272
L 144 272
L 162 272
L 179 272
L 197 272
L 214 272
L 232 272
L 250 272
L 267 272
L 285 272
L 302 272
L 320 272
L 338 272
L 355 272
L 373 272
L 390 272
L 408 272
L 426 272
L 443 170
L 461 12
L 478 272
L 496 272
L 514 272
L 531 272
L 549 272
L 566 272
L 566 273
L 38 273
L 38 272" style="stroke-width:0;stroke:none;fill:rgba(0,116,217,0.3)"/><path  d="M 38 272
L 56 272
L 74 272
L 91 272
L 109 272
L 126 272
L 144 272
L 162 272
L 179 272
L 197 272
L 214 272
L 232 272
L 250 272
L 267 272
L 285 272
L 302 272
L 320 272
L 338 272
L 355 272
L 373 272
L 390 272
L 408 272
L 426 272
L 443 170
L 461 12
L 478 272
L 496 272
L 514 272
L 531 272
L 549 272
L 566 272" style="stroke-width:1;stroke:rgba(0,116,217,0.3);fill:none"/><text x="216" y="33" style="stroke-width:0;stroke:none;fill:rgba(51,51,51,1.0);font-size:23.0px;font-family:'Roboto Medium',sans-serif">hits.seeyoufarm.com</text></svg>