<svg xmlns="http://www.w3.org/2000/svg" xmlns:xlink="http://www.w3.org/1999/xlink" width="650" height="300">\n<path  d="M 0 0
L 650 0
L 650 300
L 0 300
L 0 0" style="stroke-width:0;stroke:rgba(255,255,255,1.0);fill:rgba(255,255,255,1.0)"/><path  d="M 38 11
L 580 11
L 580 273
L 38 273
L 38 11" style="stroke-width:0;stroke:rgba(255,255,255,1.0);fill:rgba(255,255,255,1.0)"/><path  d="M 38 273
L 580 273" style="stroke-width:1;stroke:rgba(51,51,51,1.0);fill:none"/><path  d="M 38 273
L 38 278" style="stroke-width:1;stroke:rgba(51,51,51,1.0);fill:none"/><text x="5" y="295" style="stroke-width:0;stroke:none;fill:rgba(51,51,51,1.0);font-size:12.8px;font-family:'Roboto Medium',sans-serif">2024-03-04</text><path  d="M 174 273
L 174 278" style="stroke-width:1;stroke:rgba(51,51,51,1.0);fill:none"/><text x="141" y="295" style="stroke-width:0;stroke:none;fill:rgba(51,51,51,1.0);font-size:12.8px;font-family:'Roboto Medium',sans-serif">2024-03-12</text><path  d="M 309 273
L 309 278" style="stroke-width:1;stroke:rgba(51,51,51,1.0);fill:none"/><text x="276" y="295" style="stroke-width:0;stroke:none;fill:rgba(51,51,51,1.0);font-size:12.8px;font-family:'Roboto Medium',sans-serif">2024-03-19</text><path  d="M 445 273
L 445 278" style="stroke-width:1;stroke:rgba(51,51,51,1.0);fill:none"/><text x="412" y="295" style="stroke-width:0;stroke:none;fill:rgba(51,51,51,1.0);font-size:12.8px;font-family:'Roboto Medium',sans-serif">2024-03-27</text><path  d="M 580 273
L 580 278" style="stroke-width:1;stroke:rgba(51,51,51,1.0);fill:none"/><text x="547" y="295" style="stroke-width:0;stroke:none;fill:rgba(51,51,51,1.0);font-size:12.8px;font-family:'Roboto Medium',sans-serif">2024-04-03</text><path  d="M 581 273
L 581 11" style="stroke-width:1;stroke:rgba(51,51,51,1.0);fill:none"/><path  d="M 581 273
L 586 273" style="stroke-width:1;stroke:rgba(51,51,51,1.0);fill:none"/><text x="591" y="279" style="stroke-width:0;stroke:none;fill:rgba(51,51,51,1.0);font-size:12.8px;font-family:'Roboto Medium',sans-serif">4000.00</text><path  d="M 581 228
L 586 228" style="stroke-width:1;stroke:rgba(51,51,51,1.0);fill:none"/><text x="591" y="234" style="stroke-width:0;stroke:none;fill:rgba(51,51,51,1.0);font-size:12.8px;font-family:'Roboto Medium',sans-serif">6200.00</text><path  d="M 581 184
L 586 184" style="stroke-width:1;stroke:rgba(51,51,51,1.0);fill:none"/><text x="591" y="190" style="stroke-width:0;stroke:none;fill:rgba(51,51,51,1.0);font-size:12.8px;font-family:'Roboto Medium',sans-serif">8400.00</text><path  d="M 581 142
L 586 142" style="stroke-width:1;stroke:rgba(51,51,51,1.0);fill:none"/><text x="591" y="148" style="stroke-width:0;stroke:none;fill:rgba(51,51,51,1.0);font-size:12.8px;font-family:'Roboto Medium',sans-serif">10500.00</text><path  d="M 581 97
L 586 97" style="stroke-width:1;stroke:rgba(51,51,51,1.0);fill:none"/><text x="591" y="103" style="stroke-width:0;stroke:none;fill:rgba(51,51,51,1.0);font-size:12.8px;font-family:'Roboto Medium',sans-serif">12700.00</text><path  d="M 581 53
L 586 53" style="stroke-width:1;stroke:rgba(51,51,51,1.0);fill:none"/><text x="591" y="59" style="stroke-width:0;stroke:none;fill:rgba(51,51,51,1.0);font-size:12.8px;font-family:'Roboto Medium',sans-serif">14900.00</text><path  d="M 581 11
L 586 11" style="stroke-width:1;stroke:rgba(51,51,51,1.0);fill:none"/><text x="591" y="17" style="stroke-width:0;stroke:none;fill:rgba(51,51,51,1.0);font-size:12.8px;font-family:'Roboto Medium',sans-serif">17000.00</text><path  d="M 38 125
L 57 215
L 75 211
L 93 151
L 111 136
L 129 116
L 147 168
L 165 109
L 183 176
L 201 223
L 219 226
L 237 21
L 255 79
L 273 168
L 291 93
L 309 200
L 328 239
L 346 252
L 364 219
L 382 166
L 400 128
L 418 147
L 436 226
L 454 252
L 472 262
L 490 245
L 508 139
L 526 112
L 544 257
L 562 272
L 580 246
L 580 273
L 38 273
L 38 125" style="stroke-width:0;stroke:none;fill:rgba(0,116,217,0.3)"/><path  d="M 38 125
L 57 215
L 75 211
L 93 151
L 111 136
L 129 116
L 147 168
L 165 109
L 183 176
L 201 223
L 219 226
L 237 21
L 255 79
L 273 168
L 291 93
L 309 200
L 328 239
L 346 252
L 364 219
L 382 166
L 400 128
L 418 147
L 436 226
L 454 252
L 472 262
L 490 245
L 508 139
L 526 112
L 544 257
L 562 272
L 580 246" style="stroke-width:1;stroke:rgba(0,116,217,0.3);fill:none"/><text x="144" y="33" style="stroke-width:0;stroke:none;fill:rgba(51,51,51,1.0);font-size:23.0px;font-family:'Roboto Medium',sans-serif">docs.hmcl.net/changelog/dev.html</text></svg>