<svg xmlns="http://www.w3.org/2000/svg" xmlns:xlink="http://www.w3.org/1999/xlink" width="650" height="300">\n<path  d="M 0 0
L 650 0
L 650 300
L 0 300
L 0 0" style="stroke-width:0;stroke:rgba(255,255,255,1.0);fill:rgba(255,255,255,1.0)"/><path  d="M 38 11
L 580 11
L 580 273
L 38 273
L 38 11" style="stroke-width:0;stroke:rgba(255,255,255,1.0);fill:rgba(255,255,255,1.0)"/><path  d="M 38 273
L 580 273" style="stroke-width:1;stroke:rgba(51,51,51,1.0);fill:none"/><path  d="M 38 273
L 38 278" style="stroke-width:1;stroke:rgba(51,51,51,1.0);fill:none"/><text x="5" y="295" style="stroke-width:0;stroke:none;fill:rgba(51,51,51,1.0);font-size:12.8px;font-family:'Roboto Medium',sans-serif">2024-07-08</text><path  d="M 174 273
L 174 278" style="stroke-width:1;stroke:rgba(51,51,51,1.0);fill:none"/><text x="141" y="295" style="stroke-width:0;stroke:none;fill:rgba(51,51,51,1.0);font-size:12.8px;font-family:'Roboto Medium',sans-serif">2024-07-15</text><path  d="M 309 273
L 309 278" style="stroke-width:1;stroke:rgba(51,51,51,1.0);fill:none"/><text x="276" y="295" style="stroke-width:0;stroke:none;fill:rgba(51,51,51,1.0);font-size:12.8px;font-family:'Roboto Medium',sans-serif">2024-07-23</text><path  d="M 445 273
L 445 278" style="stroke-width:1;stroke:rgba(51,51,51,1.0);fill:none"/><text x="412" y="295" style="stroke-width:0;stroke:none;fill:rgba(51,51,51,1.0);font-size:12.8px;font-family:'Roboto Medium',sans-serif">2024-07-30</text><path  d="M 580 273
L 580 278" style="stroke-width:1;stroke:rgba(51,51,51,1.0);fill:none"/><text x="547" y="295" style="stroke-width:0;stroke:none;fill:rgba(51,51,51,1.0);font-size:12.8px;font-family:'Roboto Medium',sans-serif">2024-08-07</text><path  d="M 581 273
L 581 11" style="stroke-width:1;stroke:rgba(51,51,51,1.0);fill:none"/><path  d="M 581 273
L 586 273" style="stroke-width:1;stroke:rgba(51,51,51,1.0);fill:none"/><text x="591" y="279" style="stroke-width:0;stroke:none;fill:rgba(51,51,51,1.0);font-size:12.8px;font-family:'Roboto Medium',sans-serif">3000.00</text><path  d="M 581 228
L 586 228" style="stroke-width:1;stroke:rgba(51,51,51,1.0);fill:none"/><text x="591" y="234" style="stroke-width:0;stroke:none;fill:rgba(51,51,51,1.0);font-size:12.8px;font-family:'Roboto Medium',sans-serif">9400.00</text><path  d="M 581 185
L 586 185" style="stroke-width:1;stroke:rgba(51,51,51,1.0);fill:none"/><text x="591" y="191" style="stroke-width:0;stroke:none;fill:rgba(51,51,51,1.0);font-size:12.8px;font-family:'Roboto Medium',sans-serif">15700.00</text><path  d="M 581 142
L 586 142" style="stroke-width:1;stroke:rgba(51,51,51,1.0);fill:none"/><text x="591" y="148" style="stroke-width:0;stroke:none;fill:rgba(51,51,51,1.0);font-size:12.8px;font-family:'Roboto Medium',sans-serif">22000.00</text><path  d="M 581 97
L 586 97" style="stroke-width:1;stroke:rgba(51,51,51,1.0);fill:none"/><text x="591" y="103" style="stroke-width:0;stroke:none;fill:rgba(51,51,51,1.0);font-size:12.8px;font-family:'Roboto Medium',sans-serif">28400.00</text><path  d="M 581 54
L 586 54" style="stroke-width:1;stroke:rgba(51,51,51,1.0);fill:none"/><text x="591" y="60" style="stroke-width:0;stroke:none;fill:rgba(51,51,51,1.0);font-size:12.8px;font-family:'Roboto Medium',sans-serif">34700.00</text><path  d="M 581 11
L 586 11" style="stroke-width:1;stroke:rgba(51,51,51,1.0);fill:none"/><text x="591" y="17" style="stroke-width:0;stroke:none;fill:rgba(51,51,51,1.0);font-size:12.8px;font-family:'Roboto Medium',sans-serif">41000.00</text><path  d="M 38 266
L 57 267
L 75 267
L 93 267
L 111 266
L 129 265
L 147 266
L 165 266
L 183 267
L 201 268
L 219 268
L 237 269
L 255 267
L 273 267
L 291 269
L 309 267
L 328 268
L 346 269
L 364 267
L 382 265
L 400 265
L 418 267
L 436 267
L 454 269
L 472 270
L 490 270
L 508 62
L 526 16
L 544 96
L 562 134
L 580 245
L 580 273
L 38 273
L 38 266" style="stroke-width:0;stroke:none;fill:rgba(0,116,217,0.3)"/><path  d="M 38 266
L 57 267
L 75 267
L 93 267
L 111 266
L 129 265
L 147 266
L 165 266
L 183 267
L 201 268
L 219 268
L 237 269
L 255 267
L 273 267
L 291 269
L 309 267
L 328 268
L 346 269
L 364 267
L 382 265
L 400 265
L 418 267
L 436 267
L 454 269
L 472 270
L 490 270
L 508 62
L 526 16
L 544 96
L 562 134
L 580 245" style="stroke-width:1;stroke:rgba(0,116,217,0.3);fill:none"/><text x="131" y="33" style="stroke-width:0;stroke:none;fill:rgba(51,51,51,1.0);font-size:23.0px;font-family:'Roboto Medium',sans-serif">docs.hmcl.net/changelog/stable.html</text></svg>